<svg width="1580" height="226" viewBox="0 0 1580 226" fill="none" xmlns="http://www.w3.org/2000/svg">
<g clip-path="url(#clip0_248_3161)">
<rect width="1580" height="226" fill="white"/>
<path d="M1580 0H0V226H1580V0Z" fill="url(#paint0_radial_248_3161)"/>
<path d="M1553.83 226H1580V0L1386.24 0C1510.4 84.1777 1486.49 126.059 1472.41 150.734C1466.14 161.705 1461.82 169.274 1473.32 175.647C1487.6 183.558 1521.32 203.054 1553.83 226Z" fill="url(#paint1_linear_248_3161)"/>
<path opacity="0.19" fill-rule="evenodd" clip-rule="evenodd" d="M981.624 0C985.491 1.07688 988.096 3.69546 989.781 12.177C991.124 18.9402 1001.09 19.4307 1021.5 20.4353C1050.02 21.8387 1098.92 24.2454 1173.19 46.1585C1300.61 83.7576 1317.37 129.403 1329.02 177.71C1333.34 195.609 1319.18 210.888 1300.68 226H1085.65C1080.42 216.052 1070.87 208.493 1061.96 202.126C1055.76 197.707 1049.23 193.802 1042.71 189.896C1039.57 188.019 1036.43 186.141 1033.33 184.206C996.458 161.117 958.448 139.999 917.945 123.967C900.252 116.979 882.135 111.115 863.703 106.412L863.699 106.411C852.492 103.573 839.097 100.181 827.782 104.13C815.518 108.39 812.504 121.385 816.485 132.75C821.188 146.037 831.263 157.228 841.051 166.925C867.125 192.758 900.609 209.284 935.503 219.892C941.469 221.522 947.314 223.563 952.995 226H0V0H597.743C606.149 9.72371 615.696 18.407 626.182 25.8605C636.248 33.2889 647.492 38.972 659.443 42.6719C664.898 44.2763 670.533 45.188 676.215 45.3858C676.435 45.3913 676.662 45.3976 676.895 45.404C681.536 45.5321 688.602 45.7272 691.113 41.525C693.229 37.9884 694.37 33.9544 694.42 29.8335C694.47 25.7126 693.427 21.652 691.398 18.065C687.064 11.0448 679.397 6.88373 671.946 3.88142C668.298 2.47257 664.608 1.17822 660.882 0L841.711 0C846.511 3.10092 850.216 6.55022 852.531 10.0116C858.445 18.8518 896.383 10.6547 927.377 3.95816C934.103 2.50497 940.501 1.12244 946.175 0H981.624ZM931.102 22.2052C938.834 20.6106 946.665 18.9958 954.397 20.4225C956.869 20.803 959.208 21.7932 961.202 23.3037C963.196 24.8142 964.782 26.7976 965.818 29.0746C966.853 31.3517 967.305 33.8508 967.133 36.3463C966.961 38.8419 966.171 41.2553 964.833 43.3688C959.146 52.3999 946.174 56.2502 936.072 56.5605C927.719 56.7581 915.002 52.3397 915.45 42.2035C915.804 38.3555 917.515 34.7585 920.276 32.0551C917.775 29.4301 917.842 24.5072 922.327 23.8484C925.231 23.4161 928.159 22.8122 931.102 22.2052ZM1217.73 82.2434C1221.7 85.63 1224.23 90.4049 1224.79 95.5915C1224.9 99.8061 1222.84 103.268 1220.75 106.768C1220.42 107.328 1220.08 107.889 1219.76 108.454C1216.12 113.864 1211.9 118.866 1207.19 123.374L1207.15 123.416C1202.39 128.237 1197.6 133.096 1196.53 140.047C1194.98 151.057 1203.75 159.661 1212.61 164.776C1213.41 165.227 1214.22 165.672 1215.04 166.119C1219.34 168.464 1223.78 170.887 1226.76 174.837C1229.47 178.821 1230.69 183.634 1230.2 188.426C1228.76 207.795 1203.37 210.855 1188.36 211.283C1164.89 211.879 1141.58 205.599 1119.54 198.364C1104.03 193.251 1089.19 187.25 1073.83 181.012C1072.88 180.625 1071.93 180.24 1070.97 179.854C1056.5 174.007 1041.68 168.02 1030.63 156.511C1008.51 133.494 965.19 84.18 1000.13 54.3556C1015.08 41.6067 1036.52 39.5483 1055.4 39.7878C1076.06 40.0764 1096.55 43.4604 1116.83 46.9925L1127.6 48.8073C1131.28 48.8245 1134.93 49.3838 1138.45 50.4671C1138.79 50.4923 1139.12 50.5544 1139.44 50.6523C1155.41 55.4811 1171.12 61.1665 1186.48 67.6836C1189.39 68.8832 1192.42 69.9275 1195.45 70.9758C1203.45 73.7359 1211.53 76.5234 1217.73 82.2434ZM1290.39 131.428C1291.41 137.268 1291.16 143.258 1289.67 148.995L1289.58 148.944C1288.18 153.716 1285.48 158.008 1281.8 161.345C1278.11 164.683 1273.57 166.936 1268.68 167.855C1250.19 172.061 1222.54 163.688 1216.26 143.878C1209.1 121.587 1233.19 105.136 1252.88 105.309C1261.58 105.43 1273.71 108.038 1281.79 114.149C1282.95 114.004 1284.13 114.281 1285.11 114.931C1286.08 115.58 1286.79 116.559 1287.1 117.687L1288.19 121.27C1289.17 123.06 1289.85 124.997 1290.2 127.005C1290.45 128.465 1290.51 129.951 1290.39 131.428ZM1309.13 154.677C1310.31 155.082 1311.32 155.893 1311.97 156.967L1311.88 156.916C1312.22 157.499 1312.44 158.143 1312.53 158.811C1312.62 159.48 1312.58 160.16 1312.41 160.812C1312.23 161.464 1311.93 162.075 1311.52 162.611C1311.11 163.146 1310.6 163.595 1310.02 163.931C1307.24 165.605 1303.96 166.245 1300.76 165.736C1299.52 165.608 1298.26 165.533 1297 165.51C1296.53 166.262 1295.88 166.881 1295.1 167.305C1294.33 167.73 1293.45 167.946 1292.57 167.932C1291.68 167.918 1290.82 167.675 1290.05 167.226C1289.29 166.778 1288.66 166.139 1288.22 165.373C1285.64 160.016 1288.91 155.171 1293.33 152.114C1295.14 150.799 1297.27 149.99 1299.5 149.768C1302.47 149.84 1305.31 150.978 1307.51 152.976C1308.14 153.444 1308.69 154.02 1309.13 154.677ZM1298.48 175.315C1308.47 180.819 1307.84 196.547 1300.96 204.063C1293.54 212.211 1281.68 212.393 1272.65 206.763C1268.73 203.972 1265.29 200.562 1262.47 196.665C1262.02 196.132 1261.56 195.592 1261.09 195.043C1258 191.462 1254.63 187.538 1253.59 182.944C1253.38 182.153 1253.38 181.322 1253.58 180.53C1253.79 179.738 1254.19 179.011 1254.76 178.42C1254.95 177.33 1255.54 176.352 1256.41 175.677C1257.29 175.002 1258.39 174.68 1259.49 174.774C1264.14 174.978 1268.76 174.656 1273.38 174.335C1276.52 174.117 1279.66 173.899 1282.79 173.847C1283.85 173.827 1284.95 173.763 1286.06 173.698C1290.31 173.45 1294.8 173.188 1298.48 175.315ZM809.598 63.0966C802.824 57.0299 795.364 49.0314 793.921 39.664L793.943 39.6768C792.498 30.1602 798.744 23.6376 806.529 19.1551C816.026 13.6525 826.355 11.4652 836.956 15.0462C841.748 16.7664 846.328 19.0247 850.611 21.778C852.344 22.8674 854.052 24.0011 855.738 25.1221C856.397 25.0567 857.062 25.1201 857.697 25.3085C861.392 26.3866 865.319 26.613 869.243 26.8393C874.875 27.1641 880.501 27.4885 885.422 30.3297C892.733 34.5507 898.117 43.9034 902.257 51.0947C902.482 51.4848 902.703 51.8685 902.92 52.2447C907.145 59.5563 911.666 69.9335 904.618 77.0268C898.339 83.2916 886.505 84.3554 877.772 85.1404C877.3 85.1828 876.837 85.2244 876.384 85.266C864.329 86.306 852.189 84.8764 840.706 81.0646C829.223 77.2528 818.638 71.1388 809.598 63.0966ZM710.836 26.1867L709.036 26.388L709.058 26.4008C705.11 26.8971 703.584 23.2994 704.388 20.2197C700.772 16.6573 697.387 12.8682 694.253 8.87541C691.836 5.79718 693.005 -0.113738 697.831 0.221796C701.534 0.460358 705.145 1.46933 708.435 3.18419C709.366 3.66164 710.273 4.19005 711.179 4.71758C713.842 6.26897 716.492 7.81278 719.694 8.03062C720.465 8.09417 721.214 8.32379 721.888 8.70372C722.563 9.08365 723.147 9.60496 723.602 10.2319C724.056 10.8587 724.369 11.5764 724.52 12.3358C724.671 13.0951 724.656 13.878 724.477 14.631C731.702 14.0127 738.979 14.5462 746.037 16.2116C748.889 16.8209 751.586 18.008 753.961 19.6995C756.337 21.3909 758.34 23.5509 759.849 26.0465C762.456 30.534 764.202 36.5625 760.164 40.846C753.438 48.0961 738.654 43.5766 731.175 39.908C723.857 36.1866 717.026 31.5782 710.836 26.1867Z" fill="url(#paint2_linear_248_3161)"/>
<path style="mix-blend-mode:multiply" opacity="0.3" d="M944.831 75.5566C956.056 76.5741 980.22 35.5389 979.14 33.8814C978.059 32.2239 957.8 15.4482 940.161 29.4794C937.369 31.7065 935.695 45.8595 936.748 57.8962C936.987 61.2307 937.564 64.5324 938.471 67.7502C939.831 72.1973 941.879 75.2992 944.831 75.5566Z" fill="url(#paint3_linear_248_3161)"/>
<path style="mix-blend-mode:multiply" opacity="0.3" d="M891.351 19.9536C913.966 -6.53151 882.352 2.08919 873.812 15.9103C865.271 29.7314 883.23 29.4688 891.351 19.9536Z" fill="url(#paint4_linear_248_3161)"/>
<path style="mix-blend-mode:multiply" opacity="0.3" d="M961.824 15.7924C957.632 17.9133 952.89 18.7003 948.237 18.0476C943.017 16.723 942.849 7.23292 946.606 0H973.526C974.854 2.76964 974.99 5.56269 974.129 7.2158C972.166 9.77228 969.652 11.8537 966.774 13.3053C965.175 14.2321 963.522 15.0626 961.824 15.7924Z" fill="url(#paint5_linear_248_3161)"/>
<path style="mix-blend-mode:multiply" opacity="0.3" d="M903.781 13.4658C915.167 5.50998 918.211 24.2773 911.344 26.2483C904.477 28.2194 899.692 16.3025 903.781 13.4658Z" fill="url(#paint6_linear_248_3161)"/>
<path style="mix-blend-mode:multiply" opacity="0.15" d="M1569.06 143.37C1573.25 143.014 1572.83 151.009 1570.53 150.127C1568.23 149.244 1567.56 143.509 1569.06 143.37Z" fill="url(#paint7_linear_248_3161)"/>
<path style="mix-blend-mode:multiply" opacity="0.15" d="M1569.9 154.449C1580.13 152.474 1576.52 166.305 1571.23 165.551C1565.93 164.798 1566.23 155.169 1569.9 154.449Z" fill="url(#paint8_linear_248_3161)"/>
<path style="mix-blend-mode:multiply" opacity="0.15" d="M1516.12 154.367C1526.33 152.38 1522.74 166.223 1517.43 165.492C1512.13 164.761 1512.41 155.061 1516.12 154.367Z" fill="url(#paint9_linear_248_3161)"/>
<path d="M1287.97 168.057C1287.93 168.335 1287.92 168.615 1287.93 168.896L1287.7 167.908L1287.95 167.975C1288.06 167.11 1288.11 166.238 1288.1 165.366C1288.06 165.44 1287.94 166.198 1287.82 166.891C1287.77 167.246 1287.71 167.584 1287.67 167.804L1287.68 167.838C1287.67 167.837 1287.67 167.836 1287.67 167.834C1287.65 167.937 1287.63 168.01 1287.62 168.041L1287.57 167.812C1284.68 167.17 1287.48 175.404 1290.26 183.624C1293.06 191.868 1295.85 200.099 1292.9 199.352C1293.75 197.604 1291.2 190.187 1288.45 182.182C1284.34 170.195 1279.77 156.888 1285.45 159.318L1285.54 159.312L1287.14 165.679L1285.88 159.503C1286.96 159.981 1288.19 160.605 1289.34 161.235C1298.1 166.069 1308.72 169.299 1320.57 172.902C1327.35 174.962 1334.52 177.144 1341.98 179.817C1341.07 179.934 1340.24 180.032 1339.51 180.119C1338.63 180.224 1337.89 180.312 1337.31 180.396C1332.86 180.94 1317.49 176.523 1299.65 171.397C1295.84 170.302 1291.92 169.175 1287.97 168.057Z" fill="url(#paint10_linear_248_3161)"/>
<path fill-rule="evenodd" clip-rule="evenodd" d="M1580 183.147V226H1415.79C1411.79 222.928 1407.18 219.049 1401.77 214.159C1384.42 198.611 1364.08 186.759 1342 179.325C1355.48 178.01 1368.82 175.502 1381.85 171.83C1381.85 171.83 1366.21 147.265 1355.3 136.332C1347.41 128.415 1315.79 113.497 1297.85 105.03C1291.02 101.806 1286.17 99.5174 1285.37 98.9067C1283.97 97.8499 1283.56 101.904 1283.1 106.462C1282.59 111.456 1282.01 117.055 1280.03 117.205C1277.31 117.466 1282.66 144.415 1285.85 159.399L1285.52 159.207C1281.7 143.979 1274.86 116.288 1274.89 113.62C1274.91 111.969 1275.83 111.021 1277.03 109.774C1278.53 108.226 1280.47 106.218 1281.7 101.837C1282.49 99.0208 1285.12 92.3837 1288.23 84.9398C1280.79 82.9463 1247.08 73.6699 1247.01 69.9994C1246.96 65.8373 1255.47 51.258 1255.47 51.258C1250.57 50.7995 1245.74 49.7752 1241.08 48.2057C1234.56 45.2964 1220.49 35.5126 1205.7 25.2222C1191.66 15.4572 1176.96 5.23596 1167.44 0H1169.84C1185.61 10.1919 1204.9 22.3905 1207.15 21.7067C1208.78 21.2282 1217.97 11.7709 1227.9 1.54558C1228.4 1.03198 1228.9 0.516437 1229.41 0H1233.19C1222.93 9.08058 1213.15 19.3116 1214.7 24.1766C1217.83 33.9893 1237.69 43.8892 1242.72 45.6119C1247.75 47.3345 1330.99 57.6245 1340.47 58.6057C1338.51 57.3467 1336.58 56.1023 1334.66 54.8743C1307.93 37.7019 1286.17 23.728 1289.53 17.5882C1291.46 14.0256 1286.96 7.89554 1277.8 0H1413.41C1416.73 2.8527 1419.84 5.48435 1422.51 7.45523C1426.9 10.7074 1430.61 14.8895 1434.21 18.9474C1438.77 24.0841 1443.15 29.0217 1448.51 31.6223C1452.99 33.7945 1459.64 37.4146 1465.9 40.8233C1473.06 44.7193 1479.71 48.3392 1482.03 49.2057C1486.38 50.8301 1489.89 61.8341 1489.89 61.8341C1489.89 61.8341 1491.66 74.6702 1498.67 81.255C1502.17 84.5475 1502.17 84.5475 1501.37 84.5653C1500.57 84.5832 1498.97 84.6189 1499.27 87.9827C1499.53 90.7939 1501.82 93.3257 1504.63 96.417C1508.53 100.724 1513.42 106.117 1515.15 114.864C1516.61 122.059 1508.76 133.765 1501.31 144.884C1500.93 145.453 1500.55 146.02 1500.17 146.586C1499.63 147.512 1499.03 148.381 1498.43 149.237C1498.25 149.507 1498.06 149.777 1497.88 150.046C1491.15 160.31 1486.11 169.299 1490.8 172.537C1495.09 175.561 1501.46 174.681 1510.23 173.468C1525.56 171.348 1548.24 168.213 1580 183.147ZM1372.94 179.498C1373.52 179.836 1373.94 180.388 1374.12 181.036C1374.29 181.689 1374.2 182.384 1373.86 182.969C1373.52 183.554 1372.96 183.982 1372.31 184.158C1370.34 184.521 1368.32 184.423 1366.39 183.872C1366.06 183.79 1365.75 183.644 1365.48 183.44C1365.21 183.237 1364.98 182.981 1364.8 182.688C1364.48 182.107 1364.4 181.424 1364.57 180.784C1364.66 180.459 1364.81 180.154 1365.02 179.887C1365.22 179.62 1365.48 179.396 1365.77 179.228C1366.34 178.898 1367.02 178.804 1367.66 178.964L1369.34 179.282C1369.82 179.33 1370.3 179.332 1370.78 179.289L1370.99 179.233C1371.65 179.073 1372.34 179.168 1372.94 179.498ZM1353.06 39.1498L1358.42 42.2443C1362.47 44.7095 1366.25 47.6019 1369.68 50.872C1373.94 54.3251 1377.28 58.7712 1379.42 63.8196C1379.52 64.1981 1379.53 64.5943 1379.45 64.9779C1379.38 65.3614 1379.21 65.722 1378.97 66.032C1378.73 66.342 1378.43 66.5929 1378.08 66.7657C1377.73 66.9384 1377.34 67.0283 1376.95 67.0284C1364.32 65.9951 1353.34 58.3013 1343.3 51.2367C1342.43 50.6223 1341.55 49.9866 1340.67 49.3477C1336.03 45.9728 1331.26 42.5095 1325.46 41.6408C1322.14 41.4233 1318.85 40.9997 1315.59 40.3724C1312.28 39.1988 1309.25 37.3681 1306.68 34.9908C1305.51 34.0359 1304.39 33.0218 1303.27 32.0066C1301.57 30.472 1299.87 28.935 1298.01 27.596C1297.24 27.0314 1296.34 26.5502 1295.43 26.0641C1293.15 24.8409 1290.8 23.5869 1290.24 20.8967C1290.12 20.4431 1290.12 19.9632 1290.25 19.5101C1290.37 19.057 1290.63 18.6483 1290.97 18.3289C1291.32 18.0096 1291.75 17.7921 1292.21 17.7004C1292.67 17.6087 1293.15 17.6464 1293.59 17.8093C1294.42 17.4333 1295.24 17.0156 1296.03 16.5576L1296.12 16.4026C1296.09 16.2289 1296.05 16.054 1296 15.8765C1295.97 15.7588 1295.94 15.6401 1295.92 15.5198C1295.9 15.4941 1295.88 15.4727 1295.85 15.4572C1295.82 15.4417 1295.79 15.4325 1295.76 15.4303L1295.1 15.0467C1294.39 14.6138 1293.78 14.0253 1293.33 13.3254C1292.88 12.6256 1292.6 11.8327 1292.5 11.0065C1292.31 9.80396 1292.43 8.5732 1292.85 7.4313C1293.28 6.2894 1293.98 5.27431 1294.91 4.48257C1296.75 3.15103 1298.94 2.36497 1301.21 2.21399C1303.42 1.99941 1305.64 1.92242 1307.87 1.98351C1310.26 1.95282 1312.65 1.84401 1315.03 1.73527C1315.94 1.69379 1316.85 1.65232 1317.76 1.61521C1320.8 1.36086 1323.85 1.42126 1326.87 1.79538C1329.33 2.2975 1331.68 3.24197 1333.8 4.5828C1338.44 7.27392 1342.23 11.2133 1344.75 15.9529C1345.83 17.9505 1346.21 20.2513 1345.84 22.4925C1345.67 23.399 1345.4 24.2732 1345.12 25.1475C1344.85 26.0218 1344.57 26.8961 1344.4 27.8026C1344.09 29.2465 1344.26 30.7533 1344.88 32.0934C1345.69 33.6082 1346.82 34.9274 1348.2 35.9592C1349.75 37.1265 1351.37 38.1922 1353.06 39.1498ZM1399.29 50.2958C1399.49 50.8863 1399.47 51.5307 1399.24 52.1075C1399 52.6802 1398.57 53.1492 1398.02 53.4278C1397.47 53.7064 1396.83 53.7758 1396.23 53.6231L1395.95 53.4569L1395.69 53.8998C1395.52 54.5543 1395.1 55.1154 1394.52 55.4605C1393.94 55.8057 1393.24 55.9067 1392.59 55.7417C1390.75 55.3373 1389 54.5733 1387.46 53.4935C1385.91 52.4137 1384.6 51.0393 1383.58 49.4493C1383.41 49.1306 1383.3 48.7777 1383.27 48.4143C1383.24 48.0509 1383.29 47.6854 1383.41 47.3422C1383.38 46.896 1383.39 46.4479 1383.45 46.0038C1383.55 45.4977 1383.75 45.0174 1384.04 44.5917C1384.33 44.1661 1384.71 43.804 1385.14 43.5275C1385.66 43.3236 1386.22 43.2325 1386.78 43.2601C1387.34 43.2878 1387.89 43.4335 1388.39 43.6879C1388.54 43.7422 1388.69 43.7955 1388.85 43.8489C1389.51 44.0796 1390.19 44.3139 1390.78 44.6565C1392.47 45.5137 1394.08 46.4831 1395.69 47.4545C1396.5 47.9411 1397.31 48.4282 1398.13 48.9019C1398.68 49.2095 1399.09 49.7053 1399.29 50.2958ZM1395.45 74.0165C1397.68 74.6997 1399.75 75.8088 1401.56 77.2825C1402.49 78.0826 1403.13 79.1634 1403.38 80.36C1403.63 81.5565 1403.49 82.803 1402.96 83.909C1402.7 84.4167 1402.26 84.8193 1401.74 85.0517C1401.21 85.2841 1400.62 85.333 1400.07 85.1904C1394.59 83.7434 1389.7 80.7574 1384.87 77.809C1383.47 76.9508 1382.07 76.0959 1380.66 75.283C1380.28 75.0512 1379.98 74.727 1379.76 74.3417C1379.55 73.9564 1379.44 73.5229 1379.45 73.0832C1379.45 72.6435 1379.57 72.2124 1379.79 71.8315C1380.01 71.4506 1380.32 71.1328 1380.7 70.9088C1380.86 70.5355 1381.1 70.1998 1381.39 69.9234C1381.69 69.6471 1382.04 69.4364 1382.43 69.305C1384.05 68.663 1385.85 68.5971 1387.52 69.1183C1388.9 69.6823 1390.15 70.5042 1391.21 71.5392C1391.82 72.147 1392.52 72.6601 1393.28 73.0616L1393.94 73.4452L1395.45 74.0165ZM1379.81 82.3495C1379.99 81.7048 1380.4 81.1535 1380.98 80.8135L1381.07 80.7155C1381.4 80.1281 1381.96 79.6995 1382.62 79.5239C1383.27 79.3484 1383.97 79.4403 1384.56 79.7794C1387.01 80.9186 1389.12 82.6855 1390.67 84.9011C1390.91 85.3419 1391.02 85.844 1390.97 86.3448C1390.93 86.8456 1390.74 87.3228 1390.43 87.7169C1390.13 88.1106 1389.72 88.4083 1389.25 88.5735C1388.78 88.7386 1388.28 88.7643 1387.8 88.6473C1386.95 88.4383 1386.13 88.1511 1385.34 87.7894L1383.38 86.8354C1382.08 86.2582 1380.94 85.3761 1380.05 84.2638C1379.72 83.6812 1379.64 82.9942 1379.81 82.3495ZM1424.87 76.5615C1425.08 77.0704 1425.13 77.636 1425 78.1736L1424.91 78.1224C1424.84 78.5968 1424.65 79.0459 1424.36 79.4301C1423.89 79.9012 1423.24 80.1671 1422.58 80.1708C1422 80.1429 1421.44 80.0628 1420.88 79.9316L1420.16 79.6937C1419.77 79.7658 1419.37 79.8648 1418.99 79.9898L1418.44 80.2665C1417.87 80.5857 1417.2 80.6724 1416.56 80.5088C1416.23 80.4272 1415.92 80.2805 1415.65 80.0772C1415.37 79.8739 1415.14 79.6181 1414.97 79.3248C1414.66 78.7384 1414.57 78.0559 1414.72 77.4077C1414.9 76.7721 1415.32 76.2307 1415.89 75.8966C1415.88 75.4731 1415.99 75.0554 1416.2 74.6894C1416.54 74.1098 1417.09 73.6862 1417.74 73.5099C1418.39 73.3389 1419.08 73.4297 1419.66 73.7627L1421.23 74.6706C1422.12 74.7358 1422.98 74.9826 1423.77 75.3956L1424.34 75.7281C1424.59 75.9516 1424.77 76.2403 1424.87 76.5615ZM1395.03 194.585C1392.79 192.944 1391 190.763 1389.83 188.246C1389.64 187.959 1389.52 187.638 1389.46 187.301C1389.4 186.965 1389.41 186.62 1389.48 186.287C1389.56 185.954 1389.7 185.64 1389.9 185.363C1390.1 185.086 1390.36 184.852 1390.65 184.675C1391.04 184.507 1391.42 184.369 1391.77 184.261C1391.93 183.778 1392.24 183.359 1392.65 183.066C1393.07 182.773 1393.56 182.622 1394.07 182.634C1403.59 182.61 1419.67 183.919 1420.83 196.134C1420.83 196.698 1420.64 197.247 1420.3 197.695C1419.95 198.143 1419.47 198.464 1418.93 198.609C1413.53 200.136 1407.79 200.023 1402.46 198.285C1402.29 198.233 1402.13 198.185 1401.96 198.137C1401.44 197.988 1400.92 197.839 1400.45 197.569L1397.53 197.508C1397.17 197.504 1396.81 197.423 1396.48 197.269C1396.15 197.115 1395.85 196.892 1395.62 196.615C1395.38 196.338 1395.2 196.014 1395.1 195.664C1395 195.314 1394.97 194.946 1395.03 194.585ZM1385.86 177.956C1385.28 177.618 1384.85 177.062 1384.67 176.41L1384.63 176.384C1384.5 176.056 1384.45 175.705 1384.47 175.355C1384.49 175.005 1384.58 174.662 1384.73 174.347C1384.89 174.033 1385.11 173.755 1385.38 173.529C1385.65 173.303 1385.96 173.135 1386.29 173.036C1387.51 172.879 1388.59 172.589 1389.67 172.299C1389.99 171.909 1390.43 171.634 1390.92 171.515C1391.79 171.304 1392.68 171.173 1393.57 171.124C1393.84 171.044 1394.1 170.965 1394.37 170.885C1395.42 170.572 1396.46 170.26 1397.53 169.987C1399.5 169.454 1401.52 169.126 1403.56 169.008C1405.39 168.821 1407.22 169.237 1408.78 170.192C1409.14 170.38 1409.44 170.648 1409.67 170.975C1409.9 171.302 1410.05 171.679 1410.11 172.075C1410.17 172.47 1410.14 172.874 1410.01 173.254C1409.88 173.634 1409.67 173.979 1409.39 174.261C1406.85 176.147 1403.68 176.964 1400.54 176.538C1398.99 176.41 1397.6 176.315 1396.13 176.261L1394.58 176.226C1392.35 177.003 1390.09 177.667 1387.79 178.213C1387.14 178.386 1386.45 178.293 1385.86 177.956ZM1311.63 109.563C1303.72 105.883 1297.25 102.875 1294.81 101.467L1294.81 101.375C1286.84 96.715 1300.41 56.3273 1315.73 58.2893C1331.04 60.2513 1344.88 63.1329 1353.38 67.2406C1367.94 76.5092 1381.97 86.5816 1395.4 97.4109C1398.41 97.3393 1401.42 97.5427 1404.39 98.0187C1407.89 98.6653 1411.25 99.934 1414.3 101.765C1416.61 102.852 1418.63 104.474 1420.19 106.495C1421.1 106.943 1421.97 107.447 1422.81 108.004C1423.18 108.233 1423.5 108.556 1423.71 108.942C1423.93 109.327 1424.04 109.762 1424.04 110.204C1424.04 110.646 1423.92 111.08 1423.7 111.463C1423.48 111.846 1423.16 112.166 1422.78 112.391C1421.8 113.114 1420.68 113.624 1419.5 113.89L1419.86 114.278C1421.11 116.003 1419.29 117.876 1417.66 118.088C1417.01 118.152 1416.34 118.18 1415.69 118.187C1419.01 122.442 1421.12 127.518 1421.79 132.876C1422.98 151.279 1407.29 162.506 1388.85 169.523C1388.85 169.523 1361.34 140.499 1357.6 134.144C1355 129.733 1329.6 117.917 1311.63 109.563ZM1289.98 81.195C1281.45 80.3164 1251.45 76.8425 1249.95 68.6866L1249.95 68.5946C1248.66 61.5625 1255.12 54.9266 1258.63 52.0778C1265.06 52.8732 1272.66 53.5997 1280.78 54.3752C1287.2 54.9888 1293.95 55.6332 1300.68 56.3666C1300.68 56.3666 1295.1 69.0018 1289.98 81.195Z" fill="url(#paint11_linear_248_3161)"/>
<path opacity="0.54" d="M1029.95 0C1072.52 27.082 1108.32 66.3052 1122.46 105.582C1134.51 138.976 1120.12 167.392 1110.29 186.786C1104.47 198.284 1100.25 206.611 1104.11 210.923C1108.77 216.141 1103.82 220.951 1096.8 226H1063.23C1063.42 225.264 1063.58 224.556 1063.74 223.871C1064.67 219.745 1065.41 216.474 1072.58 213.156C1080.91 209.298 1079.43 200.23 1077.81 190.381C1076.56 182.75 1075.24 174.651 1078.34 168.14C1081.61 161.266 1082.12 160.327 1083.42 157.922C1084.94 155.108 1087.54 150.288 1096.92 131.616C1114.31 96.9808 1035.9 51.2096 1035.9 51.2096C1035.9 51.2096 1007.83 14.8164 1001.77 0H1029.95Z" fill="url(#paint12_linear_248_3161)"/>
<g opacity="0.54">
<path d="M852.459 226H848.04C851.325 208.506 855.464 185.491 855.669 179.558C855.785 176.191 855.596 173.799 855.43 171.713C855.109 167.663 854.88 164.769 857.16 158.152C857.895 156.02 858.16 155.251 857.892 154.932C856.897 153.751 848.577 158.737 829.605 123.58C819.822 105.45 805.357 96.88 791.624 93.095C800.02 93.5669 807.896 94.2978 812.963 95.4261C822.618 97.5763 833.285 108.475 842.682 118.075C848.845 124.371 854.461 130.109 858.886 132.453C864.64 135.501 864.232 137.891 863.493 142.226C862.796 146.306 861.806 152.11 865.385 161.808C870.052 174.456 860.278 205.144 852.459 226Z" fill="url(#paint13_linear_248_3161)"/>
<path d="M753.01 92.263C753.01 92.263 771.533 87.5573 791.624 93.095C773.526 92.0775 753.01 92.263 753.01 92.263Z" fill="url(#paint14_linear_248_3161)"/>
</g>
<path style="mix-blend-mode:multiply" opacity="0.6" d="M1580 183.231V211.804C1576.52 208.761 1573.83 205.855 1575.43 203.683C1580.13 197.331 1562.41 190.436 1562.41 190.436C1562.41 190.436 1532.8 184.889 1536.58 181.724C1538.6 180.035 1530.78 179.446 1521.93 178.779C1514.19 178.196 1505.66 177.553 1502.23 176.064C1499.48 174.875 1497.62 176.871 1495.79 178.828C1492.71 182.123 1489.74 185.305 1482.84 172.964C1474.99 158.928 1481.11 156.852 1488.78 154.252C1491.86 153.209 1495.18 152.081 1497.95 150.062C1491.23 160.326 1486.19 169.315 1490.79 172.651C1495.08 175.636 1501.43 174.749 1510.15 173.528C1525.49 171.383 1548.18 168.209 1580 183.231Z" fill="url(#paint15_linear_248_3161)"/>
<path style="mix-blend-mode:multiply" opacity="0.6" d="M1413.49 0H1391.12C1391.62 0.890457 1392.04 1.8626 1392.37 2.93067C1395.57 13.311 1406.77 19.5056 1412.66 22.7668C1415.36 24.2589 1416.95 25.1369 1416.15 25.5208C1415.24 25.9599 1418.6 27.0693 1423.57 28.7061C1432.42 31.6268 1446.37 36.2264 1450.19 41.6917C1451.83 44.0259 1454.52 46.189 1457.41 48.517C1465.08 54.6942 1474.2 62.0326 1468.93 76.8115C1463.69 91.4917 1469.97 95.8666 1475.05 99.408C1477.01 100.776 1478.79 102.019 1479.67 103.683C1480.94 106.112 1485.98 108.714 1490.81 111.212C1497.86 114.856 1504.47 118.278 1498.36 120.617C1491.77 123.134 1491.38 119.348 1490.69 119.293C1490.3 119.261 1489.82 120.423 1488.06 124.593C1485.63 130.362 1490.49 134.936 1494.76 138.953C1497.65 141.667 1500.26 144.127 1500.17 146.529L1500.96 145.353C1508.51 134.076 1516.55 122.066 1515.15 114.807C1513.44 105.943 1508.5 100.51 1504.57 96.1956C1501.8 93.1525 1499.54 90.6661 1499.28 87.9255C1498.96 84.6401 1500.51 84.6039 1501.3 84.5852C1502.1 84.5663 1502.13 84.5656 1498.65 81.185C1491.74 74.4801 1489.89 61.7769 1489.89 61.7769C1489.89 61.7769 1486.33 50.8615 1482.04 49.1485C1479.79 48.2531 1473.35 44.7677 1466.35 40.9765C1459.95 37.5145 1453.09 33.7975 1448.51 31.5651C1443.16 28.9547 1438.78 24.0259 1434.23 18.8985C1430.62 14.8386 1426.91 10.6543 1422.51 7.39802C1419.87 5.44065 1416.78 2.83089 1413.49 0Z" fill="url(#paint16_linear_248_3161)"/>
<path d="M1461.3 16.3257C1457.87 24.6564 1443.07 15.9305 1446.98 12.3729C1450.9 8.81533 1462.55 13.3304 1461.3 16.3257Z" fill="url(#paint17_linear_248_3161)"/>
<path fill-rule="evenodd" clip-rule="evenodd" d="M1553.14 0C1558.69 7.72346 1563.87 15.1468 1566.04 18.2635L1566.86 19.4374L1567.11 19.7952C1567.15 19.6618 1566.81 18.0137 1566.33 15.6242L1566.17 14.8041C1565.39 10.6155 1564.2 4.61952 1563.05 0H1580V107.892C1579.76 108.219 1579.52 108.544 1579.28 108.867C1578.97 109.291 1578.66 109.711 1578.36 110.129L1576.48 100.122L1576.84 112.132C1569.81 121.158 1563.76 127.638 1563.76 127.638C1564 125.473 1563.83 123.282 1563.27 121.178C1563.12 120.539 1562.94 119.853 1562.71 119.121C1561.8 116.214 1560.56 113.421 1559.01 110.796C1557.61 107.443 1557.07 103.795 1557.43 100.18L1557.17 101.143C1555.53 104.605 1553.56 107.898 1551.28 110.976C1551.27 111.06 1551.24 111.142 1551.22 111.223L1547.24 102.056L1547.82 115.688C1545.93 118.119 1543.88 120.535 1541.81 122.895L1539.25 115.482L1539.93 124.985C1530.63 135.387 1521.35 144.022 1521.35 144.022C1521.35 144.022 1521.44 143.7 1521.4 143.055C1521.42 142.619 1521.46 142.041 1521.49 141.337C1521.7 137.37 1522.12 129.372 1523 119.893C1526.2 117.997 1529.75 115.968 1532.2 114.57C1533.09 114.059 1533.84 113.633 1534.37 113.328C1532.92 113.736 1530 114.319 1526.82 114.954C1525.67 115.185 1524.48 115.422 1523.31 115.661C1523.69 111.091 1524.15 106.285 1524.61 101.487L1524.69 100.622L1543.08 91.3029L1525.72 92.1586C1525.94 90.2192 1526.2 88.3342 1526.45 86.473L1526.5 86.0675L1542.4 86.0124L1527.08 82.7272L1527.28 81.9614C1529.06 70.2852 1537.09 60.5752 1545.2 53.534C1545.72 53.0651 1546.24 52.6209 1546.77 52.2081L1547.56 51.5451C1542.23 54.2569 1536.73 56.6301 1531.1 58.6504C1528.95 59.4134 1526.76 60.0111 1524.53 60.4382C1522.39 60.8521 1520.23 61.1574 1518.06 61.353L1518.75 48.9078L1512.41 61.7729C1510.18 61.8905 1507.91 61.9702 1505.64 61.9691L1508.5 53.9464L1502.18 61.8117C1488.22 61.4139 1474.31 59.8833 1460.6 57.2349C1467.88 52.4558 1475.47 48.1471 1483.3 44.335L1492.57 51.0543L1485.59 43.201C1487.95 42.0869 1490.42 40.9746 1492.99 39.8887L1506.25 49.0015L1495.75 38.7751C1498.18 37.811 1500.66 36.8601 1503.2 35.9785L1524.72 43.4933L1515.45 32.3755C1517 31.9984 1518.58 31.6527 1520.13 31.3811C1533.23 28.934 1546.32 29.3153 1556.79 35.5896L1551.93 32.462C1549.83 31.13 1547.28 29.468 1544.51 27.6411C1538.26 23.5036 1530.89 18.5097 1525.31 14.3401L1534.29 7.87821C1534.29 7.87821 1525.75 8.23699 1518.11 8.41235C1517.69 8.0179 1517.31 7.58807 1516.97 7.12768C1516.24 6.08566 1514.94 3.93589 1513.35 0.863247L1524.71 3.13871L1530.53 3.13744L1522.36 0H1546.85L1546.34 7.58456L1549.32 0H1553.14ZM1565.43 56.5977C1565.43 56.5977 1558.35 76.2805 1558.08 89.9486C1559.86 78.6936 1562.31 67.5563 1565.43 56.5977Z" fill="url(#paint18_linear_248_3161)"/>
<path style="mix-blend-mode:multiply" opacity="0.55" d="M1580 34.6381V62.5778C1578.3 62.5241 1576.58 62.6356 1574.88 62.9173C1573.62 63.0853 1572.37 63.3252 1571.14 63.6361C1569.89 63.9425 1568.67 64.3493 1567.48 64.8524C1567.48 64.8524 1565.63 68.1961 1561.84 86.9043C1559.76 97.5407 1559.92 108.493 1562.3 119.065C1561.37 116.188 1560.11 113.425 1558.55 110.832C1557.15 107.479 1556.61 103.831 1556.97 100.216L1556.71 101.179C1555.07 104.641 1553.1 107.934 1550.82 111.012C1551.51 109.051 1552.41 106.355 1553.66 102.611C1556.42 93.2152 1558.07 83.5281 1558.58 73.7476L1555.62 72.9533C1549.02 71.1516 1542.53 68.9627 1536.19 66.3981C1534.36 65.1389 1542.27 56.376 1545.61 52.797L1546.65 51.6977L1547.01 51.344C1541.67 54.0558 1536.17 56.4289 1530.54 58.4492C1528.4 59.2122 1526.2 59.8099 1523.97 60.237L1528.76 42.3768L1520.3 31.0556C1533.4 28.6084 1546.48 28.9898 1556.95 35.2641L1552.1 32.1365C1549.99 30.8045 1547.45 29.1425 1544.68 27.3156L1546.56 27.8186C1549.94 28.4157 1553.39 28.5009 1556.79 28.0714C1561.33 27.5151 1565.02 26.0945 1565.55 24.143C1565.91 22.0504 1566.14 19.9365 1566.24 17.8145C1566.28 16.9526 1566.3 16.1657 1566.31 15.5567C1566.32 14.9307 1566.33 14.4928 1566.37 14.3551C1566.41 14.7093 1566.64 16.5185 1567.06 18.9884C1568.14 25.7374 1570.7 37.04 1575 37.0007C1576.1 36.9433 1577.18 36.6026 1578.12 36.011C1578.6 35.7151 1579.08 35.3944 1579.54 35.0424C1579.7 34.9085 1579.85 34.7737 1580 34.6381Z" fill="url(#paint19_linear_248_3161)"/>
<path style="mix-blend-mode:multiply" opacity="0.35" d="M1556.74 101.08C1559.92 86.0462 1565.45 59.3024 1565.99 52.7234L1566.68 43.4296C1559.38 46.0626 1552.27 49.1801 1545.38 52.7613V52.7613C1545.05 52.9108 1544.74 53.0917 1544.42 53.2725C1536.32 60.3136 1528.26 70.1225 1526.51 81.6999L1526.3 82.4657L1541.63 85.7508L1525.73 85.8059C1525.46 87.799 1525.18 89.8167 1524.94 91.8971L1542.3 91.0414L1523.92 100.36C1523.38 105.513 1522.87 110.672 1522.53 115.399C1526.88 114.604 1531.59 113.721 1533.59 113.067C1531.53 114.13 1526.6 117.043 1522.22 119.631C1521.31 130.826 1520.79 139.899 1520.62 142.793C1520.61 143.426 1520.58 143.76 1520.58 143.76C1520.58 143.76 1529.85 135.126 1539.15 124.724L1538.47 115.221L1541.04 122.634C1543.1 120.274 1545.15 117.858 1547.04 115.427L1546.46 101.794L1550.44 110.962C1550.47 110.881 1550.49 110.798 1550.5 110.715C1552.89 107.714 1554.98 104.487 1556.74 101.08V101.08Z" fill="url(#paint20_linear_248_3161)"/>
<path style="mix-blend-mode:multiply" opacity="0.35" d="M1564.3 40.2757L1527.54 46.3139L1460.6 57.2351C1474.31 59.8835 1488.22 61.4141 1502.18 61.8119L1507.87 53.8305L1505 61.8532C1507.28 61.8543 1509.55 61.7746 1511.78 61.657L1518.12 48.7919L1517.43 61.2371C1519.6 61.0415 1521.76 60.7362 1523.9 60.3223C1526.13 59.8952 1528.32 59.2975 1530.46 58.5345C1536.1 56.5142 1541.6 54.141 1546.93 51.4292V51.4292L1546.14 52.0922L1546.56 51.8077L1564.3 40.2757Z" fill="url(#paint21_linear_248_3161)"/>
<path style="mix-blend-mode:multiply" opacity="0.28" d="M1564.99 37.6822L1551.77 32.3667C1549.67 31.0347 1547.12 29.3727 1544.35 27.5457C1538.1 23.4082 1530.74 18.3897 1525.15 14.2447L1534.13 7.78289C1534.13 7.78289 1525.59 8.16637 1517.95 8.31702C1517.53 7.92257 1517.15 7.49272 1516.81 7.03233C1516.15 6.03487 1514.85 3.8604 1513.19 0.767899L1524.55 3.04337L1530.37 3.04211L1522.44 0H1531.31L1564.99 37.6822Z" fill="url(#paint22_linear_248_3161)"/>
<path style="mix-blend-mode:multiply" opacity="0.35" d="M1564.1 126.881L1573.24 46.0096C1575.26 57.3839 1575.52 68.999 1574.02 80.4527C1571.31 96.5923 1564.1 126.881 1564.1 126.881Z" fill="url(#paint23_linear_248_3161)"/>
<path style="mix-blend-mode:multiply" opacity="0.35" d="M1520.87 142.965C1530.62 127.385 1539.46 111.251 1547.34 94.6443C1554.76 78.2389 1561.06 61.3493 1566.19 44.0918C1553.12 86.4472 1520.87 142.965 1520.87 142.965Z" fill="url(#paint24_linear_248_3161)"/>
<path d="M718.315 226H0V0H592.53C648.601 65.2932 691.834 141.931 718.315 226Z" fill="url(#paint25_radial_248_3161)"/>
</g>
<defs>
<radialGradient id="paint0_radial_248_3161" cx="0" cy="0" r="1" gradientUnits="userSpaceOnUse" gradientTransform="translate(22.0001 392) rotate(-18.4718) scale(1475.52 1188.92)">
<stop stop-color="#0E48D6"/>
<stop offset="1" stop-color="#46E7C4"/>
</radialGradient>
<linearGradient id="paint1_linear_248_3161" x1="1487" y1="107.5" x2="1580" y2="2.27529e-07" gradientUnits="userSpaceOnUse">
<stop stop-color="#FFDEA4"/>
<stop offset="1" stop-color="#FABB52"/>
</linearGradient>
<linearGradient id="paint2_linear_248_3161" x1="-0.0995238" y1="59.148" x2="1066.63" y2="59.148" gradientUnits="userSpaceOnUse">
<stop stop-color="#E8EFFF"/>
<stop offset="0.21" stop-color="#F3F6FF"/>
<stop offset="0.54" stop-color="#FCFDFF"/>
<stop offset="0.99" stop-color="white"/>
</linearGradient>
<linearGradient id="paint3_linear_248_3161" x1="930.586" y1="80.7591" x2="928.887" y2="-10.8792" gradientUnits="userSpaceOnUse">
<stop stop-color="#F9CA7B"/>
<stop offset="1" stop-color="#CA5F4B"/>
</linearGradient>
<linearGradient id="paint4_linear_248_3161" x1="742.478" y1="-48.0712" x2="1014.86" y2="-129.748" gradientUnits="userSpaceOnUse">
<stop stop-color="#F9CA7B"/>
<stop offset="1" stop-color="#CA5F4B"/>
</linearGradient>
<linearGradient id="paint5_linear_248_3161" x1="906.217" y1="60.2715" x2="951.647" y2="-63.2345" gradientUnits="userSpaceOnUse">
<stop stop-color="#F9CA7B"/>
<stop offset="1" stop-color="#CA5F4B"/>
</linearGradient>
<linearGradient id="paint6_linear_248_3161" x1="865.321" y1="45.2312" x2="910.769" y2="-78.2568" gradientUnits="userSpaceOnUse">
<stop stop-color="#F9CA7B"/>
<stop offset="1" stop-color="#CA5F4B"/>
</linearGradient>
<linearGradient id="paint7_linear_248_3161" x1="1547.92" y1="155.69" x2="1566.61" y2="103.917" gradientUnits="userSpaceOnUse">
<stop stop-color="#F9CA7B"/>
<stop offset="1" stop-color="#CA5F4B"/>
</linearGradient>
<linearGradient id="paint8_linear_248_3161" x1="1543.11" y1="186.063" x2="1577.45" y2="90.8884" gradientUnits="userSpaceOnUse">
<stop stop-color="#F9CA7B"/>
<stop offset="1" stop-color="#CA5F4B"/>
</linearGradient>
<linearGradient id="paint9_linear_248_3161" x1="1489.13" y1="185.814" x2="1523.5" y2="90.6541" gradientUnits="userSpaceOnUse">
<stop stop-color="#F9CA7B"/>
<stop offset="1" stop-color="#CA5F4B"/>
</linearGradient>
<linearGradient id="paint10_linear_248_3161" x1="994.237" y1="243.939" x2="1184.18" y2="-237.519" gradientUnits="userSpaceOnUse">
<stop stop-color="#76FBDE"/>
<stop offset="0.32" stop-color="#ABF8DA"/>
<stop offset="0.62" stop-color="#D9F5D8"/>
<stop offset="0.86" stop-color="#F5F4D6"/>
<stop offset="1" stop-color="#FFF3D5"/>
</linearGradient>
<linearGradient id="paint11_linear_248_3161" x1="994.237" y1="243.939" x2="1184.18" y2="-237.519" gradientUnits="userSpaceOnUse">
<stop stop-color="#76FBDE"/>
<stop offset="0.32" stop-color="#ABF8DA"/>
<stop offset="0.62" stop-color="#D9F5D8"/>
<stop offset="0.86" stop-color="#F5F4D6"/>
<stop offset="1" stop-color="#FFF3D5"/>
</linearGradient>
<linearGradient id="paint12_linear_248_3161" x1="695.785" y1="339.263" x2="1049.41" y2="24.2275" gradientUnits="userSpaceOnUse">
<stop stop-color="#76FBDE"/>
<stop offset="0.32" stop-color="#ABF8DA"/>
<stop offset="0.62" stop-color="#D9F5D8"/>
<stop offset="0.86" stop-color="#F5F4D6"/>
<stop offset="1" stop-color="#FFF3D5"/>
</linearGradient>
<linearGradient id="paint13_linear_248_3161" x1="866.028" y1="180.572" x2="738.772" y2="148.655" gradientUnits="userSpaceOnUse">
<stop stop-color="#76FBDE"/>
<stop offset="0.32" stop-color="#ABF8DA"/>
<stop offset="0.62" stop-color="#D9F5D8"/>
<stop offset="0.86" stop-color="#F5F4D6"/>
<stop offset="1" stop-color="#FFF3D5"/>
</linearGradient>
<linearGradient id="paint14_linear_248_3161" x1="866.028" y1="180.572" x2="738.772" y2="148.655" gradientUnits="userSpaceOnUse">
<stop stop-color="#76FBDE"/>
<stop offset="0.32" stop-color="#ABF8DA"/>
<stop offset="0.62" stop-color="#D9F5D8"/>
<stop offset="0.86" stop-color="#F5F4D6"/>
<stop offset="1" stop-color="#FFF3D5"/>
</linearGradient>
<linearGradient id="paint15_linear_248_3161" x1="1640.71" y1="251.794" x2="1480.13" y2="159.087" gradientUnits="userSpaceOnUse">
<stop stop-color="#76FBDE"/>
<stop offset="0.32" stop-color="#ABF8DA"/>
<stop offset="0.62" stop-color="#D9F5D8"/>
<stop offset="0.86" stop-color="#F5F4D6"/>
<stop offset="1" stop-color="#FFF3D5"/>
</linearGradient>
<linearGradient id="paint16_linear_248_3161" x1="1523.37" y1="108.185" x2="1283.13" y2="-30.5175" gradientUnits="userSpaceOnUse">
<stop stop-color="#76FBDE"/>
<stop offset="0.32" stop-color="#ABF8DA"/>
<stop offset="0.62" stop-color="#D9F5D8"/>
<stop offset="0.86" stop-color="#F5F4D6"/>
<stop offset="1" stop-color="#FFF3D5"/>
</linearGradient>
<linearGradient id="paint17_linear_248_3161" x1="1422.44" y1="-19.111" x2="1502.6" y2="67.1935" gradientUnits="userSpaceOnUse">
<stop stop-color="white"/>
<stop offset="1" stop-color="#CA5F4B"/>
</linearGradient>
<linearGradient id="paint18_linear_248_3161" x1="1464.38" y1="158.33" x2="1592.77" y2="-15.5865" gradientUnits="userSpaceOnUse">
<stop stop-color="#004E05"/>
<stop offset="1" stop-color="#ACB807"/>
</linearGradient>
<linearGradient id="paint19_linear_248_3161" x1="1511.07" y1="116.088" x2="1590.14" y2="8.94224" gradientUnits="userSpaceOnUse">
<stop stop-color="#004E05"/>
<stop offset="0.45" stop-color="#4E7E06"/>
<stop offset="1" stop-color="#ACB807"/>
</linearGradient>
<linearGradient id="paint20_linear_248_3161" x1="1492.2" y1="155.777" x2="1567.68" y2="53.5458" gradientUnits="userSpaceOnUse">
<stop stop-color="#004E05"/>
<stop offset="0.45" stop-color="#4E7E06"/>
<stop offset="1" stop-color="#ACB807"/>
</linearGradient>
<linearGradient id="paint21_linear_248_3161" x1="1479.17" y1="93.8509" x2="1531.64" y2="22.7347" gradientUnits="userSpaceOnUse">
<stop stop-color="#004E05"/>
<stop offset="0.45" stop-color="#4E7E06"/>
<stop offset="1" stop-color="#ACB807"/>
</linearGradient>
<linearGradient id="paint22_linear_248_3161" x1="1512.95" y1="13.8348" x2="1532.61" y2="-12.8262" gradientUnits="userSpaceOnUse">
<stop stop-color="#004E05"/>
<stop offset="0.45" stop-color="#4E7E06"/>
<stop offset="1" stop-color="#ACB807"/>
</linearGradient>
<linearGradient id="paint23_linear_248_3161" x1="1537.47" y1="128.722" x2="1586.68" y2="62.0796" gradientUnits="userSpaceOnUse">
<stop stop-color="#004E05"/>
<stop offset="0.45" stop-color="#4E7E06"/>
<stop offset="1" stop-color="#ACB807"/>
</linearGradient>
<linearGradient id="paint24_linear_248_3161" x1="1496.34" y1="157.336" x2="1570.74" y2="56.5384" gradientUnits="userSpaceOnUse">
<stop stop-color="#004E05"/>
<stop offset="0.45" stop-color="#4E7E06"/>
<stop offset="1" stop-color="#ACB807"/>
</linearGradient>
<radialGradient id="paint25_radial_248_3161" cx="0" cy="0" r="1" gradientUnits="userSpaceOnUse" gradientTransform="translate(103 420) rotate(-90) scale(645)">
<stop offset="0.180978" stop-color="#82F4F6"/>
<stop offset="0.932589" stop-color="#82F4F6" stop-opacity="0"/>
</radialGradient>
<clipPath id="clip0_248_3161">
<rect width="1580" height="226" fill="white"/>
</clipPath>
</defs>
</svg>
