<svg width="335" height="492" viewBox="0 0 335 492" fill="none" xmlns="http://www.w3.org/2000/svg">
<g clip-path="url(#clip0_257_3837)">
<rect width="335" height="492" fill="white"/>
<path d="M335 -0.000107427L0 -0.00012207L9.01158e-06 492H335L335 -0.000107427Z" fill="url(#paint0_radial_257_3837)"/>
<path d="M335.002 492L239.198 492C266.224 469.941 297.831 434.59 335.002 379.761V492Z" fill="url(#paint1_linear_257_3837)"/>
<path opacity="0.19" fill-rule="evenodd" clip-rule="evenodd" d="M36.0399 -0.000120495L0 -0.00012207L0.000477225 252.946C22.4003 280.372 45.0483 301.353 71.5807 294.953C143.186 277.682 210.846 252.836 266.579 63.9578C273.345 41.0299 278.856 19.7328 283.36 -0.000109684L262.518 -0.000110595C262.222 4.22767 261.443 8.41175 260.193 12.4697C260.155 12.9653 260.063 13.4553 259.918 13.9309C252.76 37.6111 244.333 60.8889 234.673 83.6632C232.895 87.973 231.347 92.4589 229.794 96.9614L229.793 96.9647C225.701 108.824 221.569 120.8 213.091 129.991C208.071 135.873 200.993 139.616 193.305 140.454C187.057 140.621 181.925 137.56 176.737 134.466C175.907 133.971 175.076 133.475 174.238 132.992C166.219 127.592 158.805 121.344 152.123 114.358L152.061 114.297C144.914 107.246 137.712 100.14 127.408 98.5565C111.088 96.2692 98.3348 109.261 90.753 122.393C90.0836 123.576 89.4249 124.784 88.762 126C85.2858 132.375 81.695 138.96 75.8387 143.373C69.9334 147.389 62.8002 149.192 55.6958 148.465C26.985 146.334 22.4506 108.697 21.8161 86.4441C21.071 57.1353 27.5622 27.9955 36.0399 -0.000120495ZM114.145 236.621C122.649 238.835 131.528 239.2 140.185 237.691C142.374 237.871 144.576 237.775 146.741 237.406C149.717 236.885 152.589 235.881 155.241 234.434L160.553 232.817C162.225 232.352 163.675 231.301 164.638 229.856C165.601 228.411 166.012 226.668 165.798 224.945C174.855 212.972 178.721 194.98 178.9 182.083C179.157 152.903 154.771 117.2 121.73 127.802C92.3661 137.113 79.9535 178.097 86.1887 205.51C87.5515 212.756 90.8909 219.484 95.8379 224.951C100.785 230.418 107.147 234.411 114.221 236.49L114.145 236.621ZM102.327 269.676C103.92 268.716 105.123 267.224 105.722 265.464C106.696 264.818 107.55 264.007 108.244 263.067C111.205 259.809 112.893 255.594 112.999 251.192C112.67 247.891 111.47 244.736 109.522 242.05C104.99 235.494 97.8084 230.647 89.8684 234.468C88.7323 235.122 87.7855 236.061 87.1206 237.192C86.4557 238.322 86.0954 239.606 86.0748 240.917C86.0543 242.228 86.3743 243.522 87.0035 244.673C87.6327 245.824 88.5497 246.791 89.6647 247.482C89.6313 249.359 89.5196 251.221 89.3295 253.066C88.5755 257.81 89.5232 262.668 92.005 266.78C92.5038 267.647 93.169 268.406 93.9626 269.015C94.7561 269.624 95.6623 270.069 96.6288 270.326C97.5953 270.583 98.6031 270.646 99.5941 270.512C100.585 270.378 101.54 270.049 102.403 269.544L102.327 269.676ZM32.5177 253.359C43.6586 263.556 66.9719 264.496 75.1302 249.684C78.2836 244.222 77.895 237.567 77.5277 231.275C77.4314 229.625 77.3365 227.999 77.3073 226.427C77.2291 221.778 76.9062 217.131 76.583 212.48C76.1072 205.632 75.6307 198.774 75.933 191.885C76.072 190.251 75.5942 188.625 74.5939 187.327C73.5936 186.028 72.1433 185.151 70.5286 184.869C69.6517 184.031 68.5747 183.432 67.4005 183.13C66.2262 182.828 64.9941 182.831 63.8218 183.141C57.013 184.677 51.1967 189.683 45.8873 194.252L45.8742 194.264C45.066 194.959 44.2695 195.644 43.4831 196.306C37.7078 200.488 32.6523 205.582 28.5151 211.389C20.1704 224.781 20.4401 242.359 32.5177 253.359Z" fill="url(#paint2_linear_257_3837)"/>
<path fill-rule="evenodd" clip-rule="evenodd" d="M277.668 492H0.000244141L0.000765931 423.565C4.55384 417.641 10.3037 410.809 17.5533 402.785C40.5994 377.064 58.1673 346.919 69.1863 314.188C71.1358 334.17 74.8541 353.939 80.2976 373.263C80.2976 373.263 116.71 350.075 132.915 333.911C144.651 322.204 166.764 275.345 179.314 248.749C184.093 238.622 187.486 231.433 188.391 230.242C189.957 228.18 183.949 227.566 177.192 226.876L177.191 226.876C169.789 226.12 161.49 225.273 161.267 222.33C160.881 218.298 120.934 226.227 98.7239 230.957L99.0082 230.464C121.58 224.805 162.627 214.667 166.581 214.717C169.028 214.743 170.434 216.103 172.283 217.892C174.577 220.112 177.554 222.991 184.047 224.801C188.222 225.986 198.06 229.871 209.094 234.491C212.049 223.459 225.799 173.485 231.24 173.387C237.41 173.316 259.021 185.924 259.021 185.924C259.7 178.663 261.218 171.504 263.545 164.592C267.857 154.935 282.36 134.081 297.613 112.148L297.616 112.144C312.09 91.3314 327.24 69.5475 335 55.4349V59.0046C319.893 82.3763 301.811 110.968 302.824 114.3C303.534 116.718 317.551 130.338 332.707 145.065L332.709 145.068L335 147.294V152.899C321.54 137.69 306.375 123.189 299.163 125.493C284.618 130.14 269.943 159.575 267.39 167.031C264.836 174.486 249.583 297.876 248.129 311.92C249.995 309.021 251.84 306.15 253.66 303.316C279.115 263.687 299.828 231.439 308.929 236.407C314.21 239.27 323.297 232.609 335 219.025V420.043C330.772 424.963 326.871 429.579 323.949 433.524C319.129 440.033 312.93 445.533 306.915 450.87L306.913 450.871C299.3 457.626 291.981 464.12 288.127 472.067C285.578 477.321 281.686 484.593 277.668 492ZM66.6515 361.795C67.611 361.534 68.4295 360.906 68.9304 360.047C69.4201 359.171 69.5607 358.142 69.3241 357.166L69.2408 356.855C69.1768 356.144 69.18 355.427 69.2503 354.716L69.7222 352.231C69.96 351.279 69.8195 350.272 69.3304 349.422C69.0813 348.99 68.7495 348.611 68.3538 348.308C67.9582 348.004 67.5065 347.782 67.0248 347.653C66.0754 347.396 65.0632 347.518 64.2021 347.993C63.7674 348.249 63.3882 348.59 63.0868 348.995C62.7855 349.399 62.5679 349.86 62.447 350.35C61.6304 353.202 61.4851 356.205 62.0225 359.123C62.2846 360.089 62.9184 360.913 63.7858 361.414C64.6531 361.914 65.6833 362.051 66.6515 361.795ZM240.4 369.659C247.884 366.49 254.474 361.532 259.593 355.22C264.44 350.129 268.727 344.533 272.382 338.528L276.969 330.583C278.388 328.082 279.968 325.675 281.698 323.378C283.227 321.34 285.183 319.66 287.428 318.456C289.415 317.534 291.648 317.287 293.789 317.751C295.131 318.001 296.425 318.41 297.72 318.818L297.724 318.82C299.02 319.229 300.316 319.638 301.66 319.888C304.982 320.437 308.392 319.865 311.353 318.262C318.379 314.536 324.218 308.914 328.207 302.035C330.195 298.892 331.595 295.414 332.339 291.77C332.893 287.29 332.983 282.765 332.606 278.267C332.551 276.917 332.49 275.568 332.428 274.218C332.267 270.679 332.106 267.137 332.06 263.594C332.151 260.299 332.036 257.003 331.718 253.723C331.495 250.356 330.329 247.12 328.356 244.383C327.182 243.013 325.677 241.966 323.985 241.341C322.292 240.716 320.468 240.535 318.685 240.814C317.461 240.961 316.285 241.384 315.248 242.051C314.211 242.719 313.338 243.613 312.697 244.666L312.128 245.651C312.125 245.697 312.111 245.742 312.088 245.781C312.075 245.805 312.058 245.826 312.039 245.845C312.026 245.858 312.011 245.87 311.995 245.881C311.817 245.918 311.641 245.963 311.466 246.007L311.465 246.007L311.464 246.008C311.202 246.075 310.943 246.141 310.687 246.176L310.457 246.044C309.778 244.872 309.159 243.667 308.602 242.433C308.843 241.778 308.899 241.069 308.763 240.384C308.627 239.7 308.305 239.066 307.831 238.552C307.358 238.039 306.752 237.667 306.08 237.476C305.409 237.285 304.698 237.283 304.025 237.471C300.037 238.302 298.179 241.773 296.365 245.159L296.365 245.161C295.644 246.506 294.931 247.838 294.095 248.985C292.11 251.738 289.832 254.258 287.557 256.775C286.052 258.439 284.549 260.102 283.133 261.829C279.61 265.649 276.896 270.142 275.156 275.039C274.227 279.872 273.599 284.758 273.276 289.668C271.988 298.274 266.855 305.339 261.852 312.225C260.905 313.528 259.963 314.825 259.052 316.125C248.58 331.003 237.176 347.268 235.644 365.994C235.644 366.574 235.777 367.146 236.034 367.667C236.29 368.187 236.662 368.642 237.121 368.996C237.581 369.35 238.115 369.594 238.684 369.709C239.252 369.824 239.84 369.807 240.4 369.659ZM257.761 399.031C258.616 399.385 259.572 399.415 260.447 399.114C261.322 398.813 262.057 398.202 262.513 397.397C263.213 396.185 263.932 394.989 264.651 393.794L264.659 393.782C266.098 391.389 267.535 389.001 268.806 386.497C269.314 385.617 269.661 384.616 270.003 383.63C270.082 383.401 270.161 383.174 270.242 382.949C270.619 382.209 270.835 381.398 270.876 380.57C270.917 379.741 270.782 378.913 270.479 378.14C270.07 377.494 269.533 376.938 268.902 376.506C268.271 376.075 267.559 375.775 266.809 375.626C266.151 375.549 265.486 375.532 264.825 375.575C264.316 375.393 263.774 375.321 263.236 375.364C262.697 375.408 262.174 375.567 261.702 375.829C259.345 377.331 257.307 379.283 255.707 381.574C254.106 383.865 252.974 386.45 252.374 389.179C252.13 390.151 252.28 391.18 252.791 392.041C253.303 392.902 254.134 393.526 255.105 393.776L255.761 394.155L255.515 394.582C255.288 395.47 255.391 396.409 255.804 397.227C256.217 398.045 256.912 398.686 257.761 399.031ZM215.883 405.172C217.656 404.797 219.259 403.852 220.444 402.48C222.629 399.799 224.273 396.72 225.286 393.413L226.133 391.188L226.701 390.203C227.296 389.072 228.057 388.035 228.958 387.128C230.492 385.556 231.71 383.703 232.546 381.671C233.319 379.194 233.221 376.527 232.27 374.114C232.075 373.545 231.762 373.023 231.353 372.583C230.943 372.143 230.446 371.794 229.892 371.559C229.56 370.998 229.089 370.533 228.525 370.207C227.96 369.881 227.321 369.707 226.669 369.7C226.017 369.693 225.375 369.855 224.804 370.169C224.232 370.483 223.752 370.939 223.408 371.493C222.203 373.58 220.936 375.656 219.664 377.739C215.294 384.897 210.868 392.146 208.723 400.265C208.511 401.09 208.584 401.962 208.928 402.741C209.273 403.519 209.869 404.159 210.622 404.557C212.261 405.331 214.109 405.547 215.883 405.172ZM215.211 371.969C214.707 371.117 213.889 370.496 212.934 370.239C211.978 369.982 210.96 370.108 210.096 370.592C208.447 371.906 207.14 373.599 206.284 375.526L204.87 378.43C204.334 379.603 203.908 380.822 203.598 382.074C203.425 382.788 203.463 383.537 203.708 384.231C203.953 384.924 204.394 385.531 204.978 385.978C205.562 386.44 206.269 386.72 207.011 386.783C207.754 386.845 208.498 386.688 209.152 386.33C212.436 384.033 215.055 380.91 216.743 377.275C217.246 376.404 217.382 375.369 217.122 374.398C216.862 373.427 216.226 372.599 215.356 372.096L215.211 371.969ZM219.124 437.218C219.92 437.413 220.759 437.344 221.513 437.022C221.989 436.884 222.417 436.616 222.749 436.247L223.241 435.393C223.854 434.228 224.219 432.949 224.316 431.636L225.662 429.305C226.155 428.442 226.29 427.419 226.037 426.458C225.775 425.498 225.147 424.68 224.288 424.179C223.746 423.862 223.127 423.702 222.499 423.715C222.004 422.87 221.201 422.25 220.259 421.984C219.298 421.755 218.286 421.887 217.417 422.357C216.982 422.613 216.603 422.954 216.302 423.358C216.001 423.763 215.783 424.224 215.662 424.714C215.42 425.656 215.548 426.654 216.021 427.504L216.431 428.31C216.617 428.88 216.763 429.462 216.87 430.052L216.518 431.117C216.323 431.941 216.205 432.781 216.163 433.627C216.169 434.619 216.563 435.569 217.261 436.274C217.831 436.7 218.496 436.98 219.199 437.087L219.124 437.218ZM55.9634 385.084C52.2318 386.82 48.9996 389.471 46.5673 392.791C46.0324 392.714 45.4871 392.752 44.968 392.902C44.449 393.053 43.9682 393.313 43.5578 393.665C43.1475 394.016 42.8171 394.452 42.5888 394.942C42.3605 395.432 42.2396 395.965 42.2342 396.505L42.1444 400.831C41.7437 401.525 41.5222 402.298 41.3022 403.065L41.3018 403.067C41.2306 403.315 41.1595 403.563 41.0826 403.807C38.5067 411.717 38.3396 420.214 40.6025 428.218C40.8171 429.027 41.2934 429.742 41.9571 430.252C42.6209 430.762 43.4347 431.038 44.2717 431.037C62.3776 429.321 64.3175 405.491 64.2816 391.375C64.3006 390.623 64.076 389.885 63.6415 389.272C63.207 388.658 62.5858 388.201 61.8705 387.969C61.7098 387.439 61.5054 386.883 61.2572 386.302C60.9943 385.869 60.6474 385.493 60.2369 385.197C59.8265 384.901 59.3608 384.689 58.8673 384.576C58.3739 384.462 57.8627 384.449 57.3639 384.536C56.8652 384.623 56.389 384.81 55.9634 385.084ZM73.508 377.441C72.5414 377.703 71.7178 378.337 71.217 379.205C70.7163 380.072 70.5791 381.102 70.8354 382.07C71.6454 385.472 72.6286 388.83 73.7811 392.132L73.7286 394.421C73.6484 396.607 73.5075 398.671 73.3186 400.969C72.687 405.613 73.8982 410.319 76.6927 414.08C77.1114 414.5 77.6227 414.816 78.1858 415.003C78.7488 415.189 79.3477 415.241 79.9344 415.154C80.5211 415.067 81.0792 414.844 81.5639 414.502C82.0485 414.16 82.4461 413.709 82.7247 413.185C84.1399 410.866 84.7565 408.147 84.4802 405.444C84.3045 402.423 83.8184 399.429 83.0294 396.508C82.6242 394.913 82.1619 393.369 81.6976 391.818C81.5796 391.423 81.4614 391.029 81.344 390.632C81.2713 389.309 81.0772 387.996 80.7643 386.708C80.5881 385.981 80.1801 385.331 79.6018 384.855C79.1716 383.25 78.7415 381.645 78.5097 379.847C78.3617 379.349 78.1127 378.886 77.7782 378.488C77.4437 378.089 77.0308 377.764 76.5652 377.532C76.0996 377.3 75.5913 377.167 75.0719 377.14C74.5524 377.113 74.033 377.193 73.5459 377.376L73.508 377.441ZM184.595 244.246C182.508 247.861 178.049 257.449 172.594 269.178C160.211 295.804 142.697 333.463 136.158 337.315C126.739 342.864 83.7168 383.642 83.7168 383.642C94.1184 410.965 110.759 434.229 138.039 432.47C145.981 431.474 153.505 428.346 159.812 423.417C159.822 424.385 159.864 425.373 159.959 426.347C160.273 428.76 163.049 431.458 165.606 429.607L166.182 429.064C166.575 430.825 167.332 432.484 168.403 433.936C168.737 434.499 169.211 434.967 169.779 435.292C170.347 435.618 170.99 435.791 171.645 435.795C172.3 435.798 172.944 435.632 173.516 435.312C174.087 434.992 174.566 434.53 174.906 433.97C175.732 432.727 176.479 431.433 177.142 430.096C180.139 427.781 182.542 424.788 184.154 421.362C186.868 416.834 188.749 411.856 189.707 406.665C190.413 402.264 190.714 397.808 190.608 393.352C206.66 373.434 221.591 352.636 235.329 331.056C241.418 318.463 245.69 297.948 248.598 275.245C251.506 252.543 191.64 232.424 184.732 244.238L184.595 244.246ZM233.186 177.75C221.097 179.962 215.947 224.44 214.645 237.083C232.719 244.672 251.448 252.947 251.448 252.947C252.535 242.959 253.49 232.964 254.4 223.444L254.4 223.443L254.4 223.441C255.55 211.411 256.626 200.14 257.805 190.607C253.583 185.411 243.746 175.836 233.323 177.741L233.186 177.75Z" fill="url(#paint3_linear_257_3837)"/>
<path d="M84.6463 234.035C85.0619 234.027 85.4776 234.049 85.8898 234.102C84.2387 239.937 82.5743 245.728 80.9572 251.355L80.9385 251.42L80.9378 251.422C73.3397 277.858 66.7927 300.637 67.5998 307.232C67.7244 308.093 67.855 309.193 68.0102 310.5C68.1389 311.584 68.2845 312.811 68.4576 314.162C72.4197 303.108 75.6534 292.473 78.7063 282.432L78.707 282.43L78.7076 282.428L78.7082 282.426C84.0485 264.862 88.8361 249.117 96.0019 236.127C96.9357 234.433 97.8608 232.604 98.5686 230.999L89.4151 232.869L98.8529 230.506L98.844 230.37C102.445 221.951 82.721 228.72 64.953 234.818C53.0868 238.891 42.0925 242.664 39.5017 241.414C38.3939 245.786 50.5942 241.648 62.8143 237.503L62.8158 237.503C75.0005 233.37 87.2041 229.231 86.2529 233.515L85.9131 233.585C85.9599 233.6 86.0679 233.622 86.2194 233.65L86.2137 233.671L86.2641 233.658C86.5902 233.717 87.0912 233.799 87.6175 233.885C88.6446 234.052 89.7683 234.235 89.8785 234.298C88.5858 234.314 87.2934 234.24 86.0113 234.074L86.1101 233.698L84.6463 234.035Z" fill="url(#paint4_linear_257_3837)"/>
<path style="mix-blend-mode:multiply" opacity="0.6" d="M277.783 492H257.451C259.441 489.789 261.296 487.484 263.085 485.262C266.536 480.974 269.742 476.991 273.202 474.567C281.304 468.893 288.122 448.221 292.451 435.095C294.877 427.739 296.522 422.753 297.173 424.103C297.742 425.284 299.043 422.932 301.254 418.935C306.089 410.198 315.271 393.602 330.658 388.85C332.241 388.361 333.682 387.736 335.002 386.995L335.002 420.156C330.806 425.034 326.937 429.611 324.036 433.528C319.209 440.045 313.007 445.555 306.99 450.9L306.989 450.901C299.388 457.653 292.082 464.143 288.213 472.072C285.655 477.315 281.781 484.588 277.783 492Z" fill="url(#paint5_linear_257_3837)"/>
<path d="M310.804 491.023C298.455 485.951 311.389 464.003 316.663 469.805C321.936 475.608 315.243 492.886 310.804 491.023Z" fill="url(#paint6_linear_257_3837)"/>
<path fill-rule="evenodd" clip-rule="evenodd" d="M335 387.205C279.791 435.012 214.253 471.209 142.182 492L-0.000113059 492L-0.00012207 -0.000136714L335 -0.00012207L335 387.205Z" fill="url(#paint7_radial_257_3837)"/>
</g>
<defs>
<radialGradient id="paint0_radial_257_3837" cx="0" cy="0" r="1" gradientUnits="userSpaceOnUse" gradientTransform="translate(-107.5 -151) rotate(52.9791) scale(720.803 718.846)">
<stop stop-color="#0E48D6"/>
<stop offset="1" stop-color="#46E7C4"/>
</radialGradient>
<linearGradient id="paint1_linear_257_3837" x1="175.655" y1="529.123" x2="335.002" y2="666.977" gradientUnits="userSpaceOnUse">
<stop stop-color="#FFDEA4"/>
<stop offset="1" stop-color="#FABB52"/>
</linearGradient>
<linearGradient id="paint2_linear_257_3837" x1="247.325" y1="-1675.2" x2="247.325" y2="-93.9902" gradientUnits="userSpaceOnUse">
<stop stop-color="#E8EFFF"/>
<stop offset="0.21" stop-color="#F3F6FF"/>
<stop offset="0.54" stop-color="#FCFDFF"/>
<stop offset="0.99" stop-color="white"/>
</linearGradient>
<linearGradient id="paint3_linear_257_3837" x1="-26.5895" y1="-201.298" x2="687.074" y2="80.2468" gradientUnits="userSpaceOnUse">
<stop stop-color="#76FBDE"/>
<stop offset="0.32" stop-color="#ABF8DA"/>
<stop offset="0.62" stop-color="#D9F5D8"/>
<stop offset="0.86" stop-color="#F5F4D6"/>
<stop offset="1" stop-color="#FFF3D5"/>
</linearGradient>
<linearGradient id="paint4_linear_257_3837" x1="-26.5895" y1="-201.298" x2="687.074" y2="80.2468" gradientUnits="userSpaceOnUse">
<stop stop-color="#76FBDE"/>
<stop offset="0.32" stop-color="#ABF8DA"/>
<stop offset="0.62" stop-color="#D9F5D8"/>
<stop offset="0.86" stop-color="#F5F4D6"/>
<stop offset="1" stop-color="#FFF3D5"/>
</linearGradient>
<linearGradient id="paint5_linear_257_3837" x1="174.639" y1="583.038" x2="380.238" y2="226.93" gradientUnits="userSpaceOnUse">
<stop stop-color="#76FBDE"/>
<stop offset="0.32" stop-color="#ABF8DA"/>
<stop offset="0.62" stop-color="#D9F5D8"/>
<stop offset="0.86" stop-color="#F5F4D6"/>
<stop offset="1" stop-color="#FFF3D5"/>
</linearGradient>
<linearGradient id="paint6_linear_257_3837" x1="363.331" y1="433.424" x2="235.402" y2="552.246" gradientUnits="userSpaceOnUse">
<stop stop-color="white"/>
<stop offset="1" stop-color="#CA5F4B"/>
</linearGradient>
<radialGradient id="paint7_radial_257_3837" cx="0" cy="0" r="1" gradientUnits="userSpaceOnUse" gradientTransform="rotate(-180) scale(512 512)">
<stop offset="0.505367" stop-color="#82F4F6"/>
<stop offset="1" stop-color="#82F4F6" stop-opacity="0"/>
</radialGradient>
<clipPath id="clip0_257_3837">
<rect width="335" height="492" fill="white"/>
</clipPath>
</defs>
</svg>
