<svg xmlns="http://www.w3.org/2000/svg" xmlns:xlink="http://www.w3.org/1999/xlink" width="1580" height="226" fill="none"><g clip-path="url(#Y)"><path fill="#fff" d="M0 0h1580v226H0z"/><path d="M1580 0H0V226H1580V0Z" fill="url(#A)"/><path d="M1553.83 226H1580V0h-193.76c124.16 84.178 100.25 126.059 86.17 150.734-6.27 10.971-10.59 18.54.91 24.913 14.28 7.911 48 27.407 80.51 50.353z" fill="url(#B)"/><path opacity=".19" fill-rule="evenodd" d="M981.624 0c3.867 1.077 6.472 3.695 8.157 12.177 1.343 6.763 11.309 7.254 31.719 8.258 28.52 1.403 77.42 3.81 151.69 25.723 127.42 37.599 144.18 83.244 155.83 131.552 4.32 17.899-9.84 33.178-28.34 48.29h-215.03c-5.23-9.948-14.78-17.507-23.69-23.874-6.2-4.419-12.73-8.324-19.25-12.23l-9.38-5.69c-36.872-23.089-74.882-44.207-115.385-60.239-17.693-6.988-35.81-12.852-54.242-17.555l-.004-.001c-11.207-2.838-24.602-6.23-35.917-2.281-12.264 4.26-15.278 17.255-11.297 28.62 4.703 13.287 14.778 24.478 24.566 34.175 26.074 25.833 59.558 42.359 94.452 52.967A133.86 133.86 0 0 1 952.995 226H0V0h597.743c8.406 9.724 17.953 18.407 28.439 25.861a111.6 111.6 0 0 0 33.261 16.811 67.8 67.8 0 0 0 16.772 2.714l.68.018c4.641.128 11.707.323 14.218-3.879a23.32 23.32 0 0 0 3.307-11.691 23.33 23.33 0 0 0-3.022-11.768c-4.334-7.02-12.001-11.181-19.452-14.184-3.648-1.409-7.338-2.703-11.064-3.881h180.829c4.8 3.101 8.505 6.55 10.82 10.012 5.914 8.84 43.852.643 74.846-6.053L946.175 0h35.449zm-50.522 22.205c7.732-1.595 15.563-3.209 23.295-1.783 2.472.381 4.811 1.371 6.805 2.881s3.58 3.494 4.616 5.771a15.07 15.07 0 0 1 1.315 7.272c-.172 2.496-.962 4.909-2.3 7.023-5.687 9.031-18.659 12.881-28.761 13.192-8.353.198-21.07-4.221-20.622-14.357.354-3.848 2.065-7.445 4.826-10.148-2.501-2.625-2.434-7.548 2.051-8.207 2.904-.432 5.832-1.036 8.775-1.643zm286.628 60.038c3.97 3.387 6.5 8.162 7.06 13.348.11 4.215-1.95 7.677-4.04 11.177l-.99 1.686a90.92 90.92 0 0 1-12.57 14.92l-.04.042c-4.76 4.821-9.55 9.68-10.62 16.631-1.55 11.01 7.22 19.614 16.08 24.729l2.43 1.343c4.3 2.345 8.74 4.768 11.72 8.718 2.71 3.984 3.93 8.797 3.44 13.589-1.44 19.369-26.83 22.429-41.84 22.857-23.47.596-46.78-5.684-68.82-12.919-15.51-5.113-30.35-11.114-45.71-17.352l-2.86-1.158c-14.47-5.847-29.29-11.834-40.34-23.343-22.12-23.017-65.44-72.331-30.5-102.155 14.95-12.749 36.39-14.807 55.27-14.568 20.66.289 41.15 3.673 61.43 7.205l10.77 1.815c3.68.017 7.33.577 10.85 1.66.34.025.67.087.99.185 15.97 4.829 31.68 10.514 47.04 17.031 2.91 1.2 5.94 2.244 8.97 3.292 8 2.76 16.08 5.548 22.28 11.268zm72.66 49.185c1.02 5.84.77 11.83-.72 17.567l-.09-.051c-1.4 4.772-4.1 9.064-7.78 12.401-3.69 3.338-8.23 5.591-13.12 6.51-18.49 4.206-46.14-4.167-52.42-23.977-7.16-22.291 16.93-38.742 36.62-38.569 8.7.121 20.83 2.729 28.91 8.84a4.91 4.91 0 0 1 3.32.782c.97.649 1.68 1.628 1.99 2.756l1.09 3.583a18.59 18.59 0 0 1 2.01 5.735c.25 1.46.31 2.946.19 4.423zm18.74 23.249a5.36 5.36 0 0 1 2.84 2.29l-.09-.051c.34.583.56 1.227.65 1.895a5.19 5.19 0 0 1-.12 2.001 5.26 5.26 0 0 1-.89 1.799c-.41.535-.92.984-1.5 1.32-2.78 1.674-6.06 2.314-9.26 1.805-1.24-.128-2.5-.203-3.76-.226a5.13 5.13 0 0 1-1.9 1.795 5.09 5.09 0 0 1-2.53.627c-.89-.014-1.75-.257-2.52-.706-.76-.448-1.39-1.087-1.83-1.853-2.58-5.357.69-10.202 5.11-13.259 1.81-1.315 3.94-2.124 6.17-2.346 2.97.072 5.81 1.21 8.01 3.208.63.468 1.18 1.044 1.62 1.701zm-10.65 20.638c9.99 5.504 9.36 21.232 2.48 28.748-7.42 8.148-19.28 8.33-28.31 2.7a44.23 44.23 0 0 1-10.18-10.098l-1.38-1.622c-3.09-3.581-6.46-7.505-7.5-12.099-.21-.791-.21-1.622-.01-2.414.21-.792.61-1.519 1.18-2.11.19-1.09.78-2.068 1.65-2.743.88-.675 1.98-.997 3.08-.903 4.65.204 9.27-.118 13.89-.439 3.14-.218 6.28-.436 9.41-.488 1.06-.02 2.16-.084 3.27-.149 4.25-.248 8.74-.51 12.42 1.617zM809.598 63.097c-6.774-6.067-14.234-14.065-15.677-23.433l.022.013c-1.445-9.517 4.801-16.039 12.586-20.522 9.497-5.503 19.826-7.69 30.427-4.109a67.3 67.3 0 0 1 13.655 6.732 239.53 239.53 0 0 1 5.127 3.344 5.11 5.11 0 0 1 1.959.186c3.695 1.078 7.622 1.305 11.546 1.531 5.632.325 11.258.649 16.179 3.49 7.311 4.221 12.695 13.574 16.835 20.765l.663 1.15c4.225 7.312 8.746 17.689 1.698 24.782-6.279 6.265-18.113 7.329-26.846 8.114l-1.388.126a88.97 88.97 0 0 1-35.678-4.201c-11.483-3.812-22.068-9.926-31.108-17.968zm-98.762-36.91l-1.8.201.022.013c-3.948.496-5.474-3.101-4.67-6.181-3.616-3.562-7.001-7.351-10.135-11.344-2.417-3.078-1.248-8.989 3.578-8.654 3.703.239 7.314 1.248 10.604 2.962.931.477 1.838 1.006 2.744 1.533 2.663 1.551 5.313 3.095 8.515 3.313.771.064 1.52.293 2.194.673s1.259.901 1.714 1.528a5.37 5.37 0 0 1 .918 2.104c.151.759.136 1.542-.043 2.295a68.46 68.46 0 0 1 21.56 1.581 21.35 21.35 0 0 1 13.812 9.835c2.607 4.487 4.353 10.516.315 14.799-6.726 7.25-21.51 2.731-28.989-.938a99.94 99.94 0 0 1-20.339-13.721z" fill="url(#C)"/><path style="mix-blend-mode:multiply" opacity=".3" d="M944.831 75.557c11.225 1.017 35.389-40.018 34.309-41.675s-21.34-18.433-38.979-4.402c-2.792 2.227-4.466 16.38-3.413 28.417.239 3.334.816 6.636 1.723 9.854 1.36 4.447 3.408 7.549 6.36 7.806z" fill="url(#D)"/><path style="mix-blend-mode:multiply" opacity=".3" d="M891.351 19.954c22.615-26.485-8.999-17.864-17.539-4.043s9.418 13.559 17.539 4.043z" fill="url(#E)"/><path style="mix-blend-mode:multiply" opacity=".3" d="M961.824 15.792c-4.192 2.121-8.934 2.908-13.587 2.255-5.22-1.325-5.388-10.815-1.631-18.048h26.92c1.328 2.77 1.464 5.563.603 7.216-1.963 2.556-4.477 4.638-7.355 6.09a46.44 46.44 0 0 1-4.95 2.487z" fill="url(#F)"/><path style="mix-blend-mode:multiply" opacity=".3" d="M903.781 13.466c11.386-7.956 14.43 10.812 7.563 12.783s-11.652-9.946-7.563-12.782z" fill="url(#G)"/><path style="mix-blend-mode:multiply" opacity=".15" d="M1569.06 143.37c4.19-.356 3.77 7.639 1.47 6.757s-2.97-6.618-1.47-6.757z" fill="url(#H)"/><path style="mix-blend-mode:multiply" opacity=".15" d="M1569.9 154.449c10.23-1.975 6.62 11.856 1.33 11.102-5.3-.753-5-10.382-1.33-11.102z" fill="url(#I)"/><path style="mix-blend-mode:multiply" opacity=".15" d="M1516.12 154.367c10.21-1.987 6.62 11.856 1.31 11.125-5.3-.731-5.02-10.431-1.31-11.125z" fill="url(#J)"/><path d="M1287.97 168.057c-.04.278-.05.558-.04.839l-.23-.988.25.067a18.96 18.96 0 0 0 .15-2.609c-.04.074-.16.832-.28 1.525l-.15.913.01.034-.06.203-.05-.229c-2.89-.642-.09 7.592 2.69 15.812 2.8 8.244 5.59 16.475 2.64 15.728.85-1.748-1.7-9.165-4.45-17.17-4.11-11.987-8.68-25.294-3-22.864l.09-.006 1.6 6.367-1.26-6.176c1.08.478 2.31 1.102 3.46 1.732 8.76 4.834 19.38 8.064 31.23 11.667 6.78 2.06 13.95 4.242 21.41 6.915l-2.47.302-2.2.277c-4.45.544-19.82-3.873-37.66-8.999l-11.68-3.34z" fill="url(#K)"/><path fill-rule="evenodd" d="M1580 183.147V226h-164.21c-4-3.072-8.61-6.951-14.02-11.841-17.35-15.548-37.69-27.4-59.77-34.834a228.85 228.85 0 0 0 39.85-7.495s-15.64-24.565-26.55-35.498c-7.89-7.917-39.51-22.835-57.45-31.302-6.83-3.224-11.68-5.513-12.48-6.123-1.4-1.057-1.81 2.997-2.27 7.555-.51 4.994-1.09 10.593-3.07 10.743-2.72.261 2.63 27.21 5.82 42.194l-.33-.192c-3.82-15.228-10.66-42.919-10.63-45.587.02-1.651.94-2.599 2.14-3.846 1.5-1.548 3.44-3.556 4.67-7.937.79-2.816 3.42-9.453 6.53-16.897-7.44-1.994-41.15-11.27-41.22-14.94-.05-4.162 8.46-18.741 8.46-18.741-4.9-.459-9.73-1.483-14.39-3.052-6.52-2.909-20.59-12.693-35.38-22.983-14.04-9.765-28.74-19.986-38.26-25.222h2.4c15.77 10.192 35.06 22.391 37.31 21.707 1.63-.479 10.82-9.936 20.75-20.161L1229.41 0h3.78c-10.26 9.081-20.04 19.312-18.49 24.177 3.13 9.813 22.99 19.713 28.02 21.435s88.27 12.013 97.75 12.994l-5.81-3.731c-26.73-17.172-48.49-31.146-45.13-37.286 1.93-3.563-2.57-9.693-11.73-17.588h135.61c3.32 2.853 6.43 5.484 9.1 7.455 4.39 3.252 8.1 7.434 11.7 11.492 4.56 5.137 8.94 10.074 14.3 12.675 4.48 2.172 11.13 5.792 17.39 9.201 7.16 3.896 13.81 7.516 16.13 8.382 4.35 1.624 7.86 12.628 7.86 12.628s1.77 12.836 8.78 19.421c3.5 3.293 3.5 3.293 2.7 3.31s-2.4.054-2.1 3.417c.26 2.811 2.55 5.343 5.36 8.434 3.9 4.307 8.79 9.7 10.52 18.447 1.46 7.195-6.39 18.901-13.84 30.02l-1.14 1.702c-.54.926-1.14 1.795-1.74 2.651l-.55.809c-6.73 10.264-11.77 19.253-7.08 22.491 4.29 3.024 10.66 2.144 19.43.931 15.33-2.12 38.01-5.255 69.77 9.679zm-207.06-3.649a2.57 2.57 0 0 1 1.18 1.538 2.56 2.56 0 0 1-.26 1.933c-.34.585-.9 1.013-1.55 1.189a12.97 12.97 0 0 1-5.92-.286c-.33-.082-.64-.228-.91-.432a2.72 2.72 0 0 1-.68-.752c-.32-.581-.4-1.264-.23-1.904.09-.325.24-.63.45-.897a2.51 2.51 0 0 1 .75-.659c.57-.33 1.25-.424 1.89-.264l1.68.318c.48.048.96.05 1.44.007l.21-.056c.66-.16 1.35-.065 1.95.265zM1353.06 39.15l5.36 3.095a66.21 66.21 0 0 1 11.26 8.628c4.26 3.453 7.6 7.899 9.74 12.948a2.52 2.52 0 0 1 .03 1.158 2.45 2.45 0 0 1-.48 1.054c-.24.31-.54.561-.89.734s-.74.263-1.13.263c-12.63-1.033-23.61-8.727-33.65-15.792l-2.63-1.889c-4.64-3.375-9.41-6.838-15.21-7.707a79.79 79.79 0 0 1-9.87-1.268c-3.31-1.174-6.34-3.004-8.91-5.382-1.17-.955-2.29-1.969-3.41-2.984-1.7-1.535-3.4-3.072-5.26-4.411-.77-.565-1.67-1.046-2.58-1.532-2.28-1.223-4.63-2.477-5.19-5.167a2.61 2.61 0 0 1 .01-1.387c.12-.453.38-.862.72-1.181.35-.319.78-.537 1.24-.629a2.55 2.55 0 0 1 1.38.109 27.5 27.5 0 0 0 2.44-1.252l.09-.155c-.03-.174-.07-.349-.12-.526-.03-.118-.06-.236-.08-.357-.02-.026-.04-.047-.07-.063s-.06-.025-.09-.027l-.66-.384c-.71-.433-1.32-1.021-1.77-1.721s-.73-1.493-.83-2.319a7.13 7.13 0 0 1 .35-3.575 7.18 7.18 0 0 1 2.06-2.949 12.13 12.13 0 0 1 6.3-2.269c2.21-.215 4.43-.292 6.66-.23 2.39-.031 4.78-.14 7.16-.248l2.73-.12c3.04-.254 6.09-.194 9.11.18a20.72 20.72 0 0 1 6.93 2.787c4.64 2.691 8.43 6.631 10.95 11.37a10.24 10.24 0 0 1 1.09 6.54c-.17.907-.44 1.781-.72 2.655-.27.874-.55 1.749-.72 2.655-.31 1.444-.14 2.951.48 4.291.81 1.515 1.94 2.834 3.32 3.866 1.55 1.167 3.17 2.233 4.86 3.191zm46.23 11.146c.2.59.18 1.235-.05 1.812a2.6 2.6 0 0 1-1.22 1.32 2.57 2.57 0 0 1-1.79.195l-.28-.166-.26.443c-.17.654-.59 1.216-1.17 1.561a2.56 2.56 0 0 1-1.93.281 14.29 14.29 0 0 1-5.13-2.248 14.37 14.37 0 0 1-3.88-4.044c-.17-.319-.28-.672-.31-1.035s.02-.729.14-1.072c-.03-.446-.02-.894.04-1.338.1-.506.3-.986.59-1.412s.67-.788 1.1-1.064a3.96 3.96 0 0 1 1.64-.267 3.99 3.99 0 0 1 1.61.428l.46.161c.66.231 1.34.465 1.93.808 1.69.857 3.3 1.827 4.91 2.798l2.44 1.447a2.52 2.52 0 0 1 1.16 1.394zm-3.84 23.721a18.04 18.04 0 0 1 6.11 3.266 5.56 5.56 0 0 1 1.82 3.078 5.57 5.57 0 0 1-.42 3.549 2.53 2.53 0 0 1-1.22 1.143c-.53.232-1.12.281-1.67.139-5.48-1.447-10.37-4.433-15.2-7.381l-4.21-2.526a2.59 2.59 0 0 1-.9-.941c-.21-.385-.32-.819-.31-1.258 0-.44.12-.871.34-1.252a2.54 2.54 0 0 1 .91-.923c.16-.373.4-.709.69-.985.3-.276.65-.487 1.04-.618 1.62-.642 3.42-.708 5.09-.187a11.51 11.51 0 0 1 3.69 2.421c.61.608 1.31 1.121 2.07 1.522l.66.384 1.51.571zm-15.64 8.333c.18-.645.59-1.196 1.17-1.536l.09-.098c.33-.587.89-1.016 1.55-1.192a2.56 2.56 0 0 1 1.94.255c2.45 1.139 4.56 2.906 6.11 5.122.24.441.35.943.3 1.444a2.55 2.55 0 0 1-.54 1.372 2.54 2.54 0 0 1-1.18.857c-.47.165-.97.191-1.45.074a13.83 13.83 0 0 1-2.46-.858l-1.96-.954a8.88 8.88 0 0 1-3.33-2.572c-.33-.583-.41-1.27-.24-1.914zm45.06-5.788a2.62 2.62 0 0 1 .13 1.612l-.09-.051c-.07.474-.26.924-.55 1.308a2.55 2.55 0 0 1-1.78.741 9.37 9.37 0 0 1-1.7-.239l-.72-.238c-.39.072-.79.171-1.17.296l-.55.277c-.57.319-1.24.406-1.88.242a2.52 2.52 0 0 1-.91-.432 2.44 2.44 0 0 1-.68-.752 2.77 2.77 0 0 1-.25-1.917 2.56 2.56 0 0 1 1.17-1.511 2.32 2.32 0 0 1 .31-1.207 2.56 2.56 0 0 1 1.54-1.18 2.55 2.55 0 0 1 1.92.253l1.57.908c.89.065 1.75.312 2.54.725l.57.332a1.85 1.85 0 0 1 .53.833zm-29.84 118.024c-2.24-1.641-4.03-3.822-5.2-6.339a2.49 2.49 0 0 1-.37-.945 2.66 2.66 0 0 1 .02-1.014 2.62 2.62 0 0 1 .42-.924 2.59 2.59 0 0 1 .75-.688 11.2 11.2 0 0 1 1.12-.414c.16-.483.47-.902.88-1.195a2.37 2.37 0 0 1 1.42-.432c9.52-.024 25.6 1.285 26.76 13.5a2.59 2.59 0 0 1-.53 1.561c-.35.448-.83.769-1.37.914a28.31 28.31 0 0 1-16.47-.324l-.5-.148c-.52-.149-1.04-.298-1.51-.568l-2.92-.061c-.36-.004-.72-.085-1.05-.239s-.63-.377-.86-.654a2.51 2.51 0 0 1-.52-.951 2.46 2.46 0 0 1-.07-1.079zm-9.17-16.629a2.59 2.59 0 0 1-1.19-1.546l-.04-.026c-.13-.328-.18-.679-.16-1.029a2.71 2.71 0 0 1 .26-1.008 2.61 2.61 0 0 1 .65-.818 2.57 2.57 0 0 1 .91-.493c1.22-.157 2.3-.447 3.38-.737a2.33 2.33 0 0 1 1.25-.784 14.69 14.69 0 0 1 2.65-.391l.8-.239 3.16-.898c1.97-.533 3.99-.861 6.03-.979a8.36 8.36 0 0 1 5.22 1.184 2.5 2.5 0 0 1 .89.783c.23.327.38.704.44 1.1s.03.799-.1 1.179-.34.725-.62 1.007a12.1 12.1 0 0 1-8.85 2.277c-1.55-.128-2.94-.223-4.41-.277l-1.55-.035a69.17 69.17 0 0 1-6.79 1.987c-.65.173-1.34.08-1.93-.257zm-74.23-68.393l-16.82-8.096v-.092c-7.97-4.66 5.6-45.048 20.92-43.086 15.31 1.962 29.15 4.844 37.65 8.951a463.29 463.29 0 0 1 42.02 30.17c3.01-.072 6.02.132 8.99.608 3.5.647 6.86 1.915 9.91 3.746 2.31 1.087 4.33 2.709 5.89 4.73.91.448 1.78.952 2.62 1.509.37.229.69.552.9.938a2.54 2.54 0 0 1 .33 1.262 2.53 2.53 0 0 1-.34 1.259c-.22.383-.54.703-.92.928-.98.723-2.1 1.233-3.28 1.499l.36.388c1.25 1.725-.57 3.598-2.2 3.81-.65.064-1.32.092-1.97.099 3.32 4.255 5.43 9.331 6.1 14.689 1.19 18.403-14.5 29.63-32.94 36.647 0 0-27.51-29.024-31.25-35.379-2.6-4.411-28-16.227-45.97-24.581zm-21.65-28.368c-8.53-.879-38.53-4.352-40.03-12.508v-.092c-1.29-7.032 5.17-13.668 8.68-16.517 6.43.795 14.03 1.522 22.15 2.297l19.9 1.991-10.7 24.828z" fill="url(#K)"/><path opacity=".54" d="M1029.95 0c42.57 27.082 78.37 66.305 92.51 105.582 12.05 33.394-2.34 61.81-12.17 81.204-5.82 11.498-10.04 19.825-6.18 24.137 4.66 5.218-.29 10.028-7.31 15.077h-33.57c.19-.736.35-1.444.51-2.129.93-4.126 1.67-7.397 8.84-10.715 8.33-3.858 6.85-12.926 5.23-22.775-1.25-7.631-2.57-15.73.53-22.241 3.27-6.874 3.78-7.813 5.08-10.218 1.52-2.814 4.12-7.634 13.5-26.306 17.39-34.635-61.02-80.406-61.02-80.406S1007.83 14.816 1001.77 0h28.18z" fill="url(#L)"/><g opacity=".54"><path d="M852.459 226h-4.419c3.285-17.494 7.424-40.509 7.629-46.442.116-3.367-.073-5.759-.239-7.845-.321-4.05-.55-6.944 1.73-13.561.735-2.132 1-2.901.732-3.22-.995-1.181-9.315 3.805-28.287-31.352-9.783-18.13-24.248-26.7-37.981-30.485 8.396.472 16.272 1.203 21.339 2.331 9.655 2.15 20.322 13.049 29.719 22.649 6.163 6.296 11.779 12.034 16.204 14.378 5.754 3.048 5.346 5.438 4.607 9.773-.697 4.08-1.687 9.884 1.892 19.582 4.667 12.648-5.107 43.336-12.926 64.192z" fill="url(#M)"/><path d="M753.01 92.263s18.523-4.706 38.614.832c-18.098-1.017-38.614-.832-38.614-.832z" fill="url(#M)"/></g><path style="mix-blend-mode:multiply" opacity=".6" d="M1580 183.231v28.573c-3.48-3.043-6.17-5.949-4.57-8.121 4.7-6.352-13.02-13.247-13.02-13.247s-29.61-5.547-25.83-8.712c2.02-1.689-5.8-2.278-14.65-2.945-7.74-.583-16.27-1.226-19.7-2.715-2.75-1.189-4.61.807-6.44 2.764-3.08 3.295-6.05 6.477-12.95-5.864-7.85-14.036-1.73-16.112 5.94-18.712 3.08-1.043 6.4-2.171 9.17-4.19-6.72 10.264-11.76 19.253-7.16 22.589 4.29 2.985 10.64 2.098 19.36.877 15.34-2.145 38.03-5.319 69.85 9.703z" fill="url(#N)"/><path style="mix-blend-mode:multiply" opacity=".6" d="M1413.49 0h-22.37c.5.89.92 1.863 1.25 2.931 3.2 10.38 14.4 16.575 20.29 19.836 2.7 1.492 4.29 2.37 3.49 2.754-.91.439 2.45 1.548 7.42 3.185 8.85 2.921 22.8 7.52 26.62 12.986 1.64 2.334 4.33 4.497 7.22 6.825 7.67 6.177 16.79 13.516 11.52 28.294-5.24 14.68 1.04 19.055 6.12 22.597 1.96 1.368 3.74 2.611 4.62 4.275 1.27 2.429 6.31 5.031 11.14 7.529 7.05 3.644 13.66 7.066 7.55 9.405-6.59 2.517-6.98-1.269-7.67-1.324-.39-.032-.87 1.13-2.63 5.3-2.43 5.769 2.43 10.343 6.7 14.36 2.89 2.714 5.5 5.174 5.41 7.576l.79-1.176c7.55-11.277 15.59-23.287 14.19-30.546-1.71-8.864-6.65-14.297-10.58-18.611-2.77-3.043-5.03-5.529-5.29-8.27-.32-3.285 1.23-3.322 2.02-3.34.8-.019.83-.02-2.65-3.4-6.91-6.705-8.76-19.408-8.76-19.408s-3.56-10.915-7.85-12.628c-2.25-.895-8.69-4.381-15.69-8.172l-17.84-9.411c-5.35-2.61-9.73-7.539-14.28-12.667-3.61-4.06-7.32-8.244-11.72-11.5-2.64-1.957-5.73-4.567-9.02-7.398z" fill="url(#O)"/><path d="M1461.3 16.326c-3.43 8.331-18.23-.395-14.32-3.953 3.92-3.558 15.57.957 14.32 3.953z" fill="url(#P)"/><path fill-rule="evenodd" d="M1553.14 0l12.9 18.264.82 1.174.25.358c.04-.133-.3-1.782-.78-4.171l-.16-.82c-.78-4.189-1.97-10.185-3.12-14.804H1580v107.892l-.72.975-.92 1.262-1.88-10.007.36 12.01c-7.03 9.026-13.08 15.506-13.08 15.506a17.59 17.59 0 0 0-.49-6.46 28.68 28.68 0 0 0-.56-2.057 39.69 39.69 0 0 0-3.7-8.325c-1.4-3.353-1.94-7.001-1.58-10.616l-.26.963c-1.64 3.462-3.61 6.755-5.89 9.833-.01.084-.04.166-.06.247l-3.98-9.167.58 13.632c-1.89 2.431-3.94 4.847-6.01 7.207l-2.56-7.413.68 9.503c-9.3 10.402-18.58 19.037-18.58 19.037s.09-.322.05-.967l.09-1.718c.21-3.967.63-11.965 1.51-21.444l9.2-5.323 2.17-1.242c-1.45.408-4.37.991-7.55 1.626l-3.51.707 1.3-14.174.08-.865 18.39-9.319-17.36.856.73-5.686.05-.406 15.9-.055-15.32-3.285.2-.766c1.78-11.676 9.81-21.386 17.92-28.427a28.55 28.55 0 0 1 1.57-1.326l.79-.663a142.28 142.28 0 0 1-16.46 7.105c-2.15.763-4.34 1.361-6.57 1.788a64.63 64.63 0 0 1-6.47.915l.69-12.445-6.34 12.865c-2.23.118-4.5.197-6.77.196l2.86-8.023-6.32 7.865c-13.96-.398-27.87-1.928-41.58-4.577a204.47 204.47 0 0 1 22.7-12.9l9.27 6.719-6.98-7.853a196.41 196.41 0 0 1 7.4-3.312l13.26 9.113-10.5-10.226c2.43-.964 4.91-1.915 7.45-2.797l21.52 7.515-9.27-11.118a73.96 73.96 0 0 1 4.68-.994c13.1-2.447 26.19-2.066 36.66 4.208l-4.86-3.128-7.42-4.821c-6.25-4.138-13.62-9.131-19.2-13.301l8.98-6.462-16.18.534a9.51 9.51 0 0 1-1.14-1.285c-.73-1.042-2.03-3.192-3.62-6.264l11.36 2.275 5.82-.001L1522.36 0h24.49l-.51 7.585L1549.32 0h3.82zm12.29 56.598s-7.08 19.683-7.35 33.351c1.78-11.255 4.23-22.392 7.35-33.351z" fill="url(#Q)"/><path style="mix-blend-mode:multiply" opacity=".55" d="M1580 34.638v27.94c-1.7-.054-3.42.058-5.12.339-1.26.168-2.51.408-3.74.719-1.25.306-2.47.713-3.66 1.216 0 0-1.85 3.344-5.64 22.052-2.08 10.636-1.92 21.589.46 32.161a39.61 39.61 0 0 0-3.75-8.233c-1.4-3.353-1.94-7.001-1.58-10.616l-.26.963c-1.64 3.462-3.61 6.755-5.89 9.833l2.84-8.401a125.62 125.62 0 0 0 4.92-28.863l-2.96-.794c-6.6-1.802-13.09-3.991-19.43-6.555-1.83-1.259 6.08-10.022 9.42-13.601l1.04-1.099.36-.354c-5.34 2.712-10.84 5.085-16.47 7.105-2.14.763-4.34 1.361-6.57 1.788l4.79-17.86-8.46-11.321c13.1-2.447 26.18-2.066 36.65 4.209l-4.85-3.128-7.42-4.821 1.88.503a34.19 34.19 0 0 0 10.23.253c4.54-.556 8.23-1.977 8.76-3.928.36-2.093.59-4.207.69-6.329a76.25 76.25 0 0 0 .07-2.258c.01-.626.02-1.064.06-1.202.04.354.27 2.163.69 4.633 1.08 6.749 3.64 18.052 7.94 18.012a6.51 6.51 0 0 0 3.12-.99c.48-.296.96-.617 1.42-.969a15.87 15.87 0 0 0 .46-.404z" fill="url(#R)"/><path style="mix-blend-mode:multiply" opacity=".35" d="M1556.74 101.08c3.18-15.034 8.71-41.778 9.25-48.357l.69-9.294c-7.3 2.633-14.41 5.751-21.3 9.332h0c-.33.15-.64.33-.96.511-8.1 7.041-16.16 16.85-17.91 28.427l-.21.766 15.33 3.285-15.9.055-.79 6.091 17.36-.856-18.38 9.319-1.39 15.039c4.35-.795 9.06-1.678 11.06-2.332-2.06 1.063-6.99 3.976-11.37 6.564l-1.6 23.162c-.01.633-.04.967-.04.967s9.27-8.634 18.57-19.036l-.68-9.503 2.57 7.413c2.06-2.36 4.11-4.776 6-7.207l-.58-13.633 3.98 9.168c.03-.081.05-.164.06-.247 2.39-3.001 4.48-6.228 6.24-9.635h0z" fill="url(#S)"/><path style="mix-blend-mode:multiply" opacity=".35" d="M1564.3 40.276l-36.76 6.038-66.94 10.921c13.71 2.648 27.62 4.179 41.58 4.577l5.69-7.981-2.87 8.023c2.28.001 4.55-.079 6.78-.196l6.34-12.865-.69 12.445a64.63 64.63 0 0 0 6.47-.915 44.38 44.38 0 0 0 6.56-1.788 141.68 141.68 0 0 0 16.47-7.105h0l-.79.663.42-.285 17.74-11.532z" fill="url(#T)"/><path style="mix-blend-mode:multiply" opacity=".28" d="M1564.99 37.682l-13.22-5.315-7.42-4.821c-6.25-4.137-13.61-9.156-19.2-13.301l8.98-6.462-16.18.534a9.51 9.51 0 0 1-1.14-1.285c-.66-.997-1.96-3.172-3.62-6.264l11.36 2.275 5.82-.001L1522.44 0h8.87l33.68 37.682z" fill="url(#U)"/><path style="mix-blend-mode:multiply" opacity=".35" d="M1564.1 126.881l9.14-80.871a113.03 113.03 0 0 1 .78 34.443c-2.71 16.14-9.92 46.428-9.92 46.428z" fill="url(#V)"/><path style="mix-blend-mode:multiply" opacity=".35" d="M1520.87 142.965a474.71 474.71 0 0 0 26.47-48.321c7.42-16.405 13.72-33.295 18.85-50.552-13.07 42.355-45.32 98.873-45.32 98.873z" fill="url(#W)"/><path d="M718.315 226H0V0h592.53c56.071 65.293 99.304 141.931 125.785 226z" fill="url(#X)"/></g><defs><radialGradient id="A" cx="0" cy="0" r="1" gradientTransform="translate(22.0001 392) rotate(-18.4718) scale(1475.52 1188.92)" xlink:href="#Z"><stop stop-color="#0e48d6"/><stop offset="1" stop-color="#46e7c4"/></radialGradient><linearGradient id="B" x1="1487" y1="107.5" x2="1580" y2="0" xlink:href="#Z"><stop stop-color="#ffdea4"/><stop offset="1" stop-color="#fabb52"/></linearGradient><linearGradient id="C" x1="-.1" y1="59.148" x2="1066.63" y2="59.148" xlink:href="#Z"><stop stop-color="#e8efff"/><stop offset=".21" stop-color="#f3f6ff"/><stop offset=".54" stop-color="#fcfdff"/><stop offset=".99" stop-color="#fff"/></linearGradient><linearGradient id="D" x1="930.586" y1="80.759" x2="928.887" y2="-10.879" xlink:href="#Z"><stop stop-color="#f9ca7b"/><stop offset="1" stop-color="#ca5f4b"/></linearGradient><linearGradient id="E" x1="742.478" y1="-48.071" x2="1014.86" y2="-129.748" xlink:href="#Z"><stop stop-color="#f9ca7b"/><stop offset="1" stop-color="#ca5f4b"/></linearGradient><linearGradient id="F" x1="906.217" y1="60.272" x2="951.647" y2="-63.234" xlink:href="#Z"><stop stop-color="#f9ca7b"/><stop offset="1" stop-color="#ca5f4b"/></linearGradient><linearGradient id="G" x1="865.321" y1="45.231" x2="910.769" y2="-78.257" xlink:href="#Z"><stop stop-color="#f9ca7b"/><stop offset="1" stop-color="#ca5f4b"/></linearGradient><linearGradient id="H" x1="1547.92" y1="155.69" x2="1566.61" y2="103.917" xlink:href="#Z"><stop stop-color="#f9ca7b"/><stop offset="1" stop-color="#ca5f4b"/></linearGradient><linearGradient id="I" x1="1543.11" y1="186.063" x2="1577.45" y2="90.888" xlink:href="#Z"><stop stop-color="#f9ca7b"/><stop offset="1" stop-color="#ca5f4b"/></linearGradient><linearGradient id="J" x1="1489.13" y1="185.814" x2="1523.5" y2="90.654" xlink:href="#Z"><stop stop-color="#f9ca7b"/><stop offset="1" stop-color="#ca5f4b"/></linearGradient><linearGradient id="K" x1="994.237" y1="243.939" x2="1184.18" y2="-237.519" xlink:href="#Z"><stop stop-color="#76fbde"/><stop offset=".32" stop-color="#abf8da"/><stop offset=".62" stop-color="#d9f5d8"/><stop offset=".86" stop-color="#f5f4d6"/><stop offset="1" stop-color="#fff3d5"/></linearGradient><linearGradient id="L" x1="695.785" y1="339.263" x2="1049.41" y2="24.228" xlink:href="#Z"><stop stop-color="#76fbde"/><stop offset=".32" stop-color="#abf8da"/><stop offset=".62" stop-color="#d9f5d8"/><stop offset=".86" stop-color="#f5f4d6"/><stop offset="1" stop-color="#fff3d5"/></linearGradient><linearGradient id="M" x1="866.028" y1="180.572" x2="738.772" y2="148.655" xlink:href="#Z"><stop stop-color="#76fbde"/><stop offset=".32" stop-color="#abf8da"/><stop offset=".62" stop-color="#d9f5d8"/><stop offset=".86" stop-color="#f5f4d6"/><stop offset="1" stop-color="#fff3d5"/></linearGradient><linearGradient id="N" x1="1640.71" y1="251.794" x2="1480.13" y2="159.087" xlink:href="#Z"><stop stop-color="#76fbde"/><stop offset=".32" stop-color="#abf8da"/><stop offset=".62" stop-color="#d9f5d8"/><stop offset=".86" stop-color="#f5f4d6"/><stop offset="1" stop-color="#fff3d5"/></linearGradient><linearGradient id="O" x1="1523.37" y1="108.185" x2="1283.13" y2="-30.517" xlink:href="#Z"><stop stop-color="#76fbde"/><stop offset=".32" stop-color="#abf8da"/><stop offset=".62" stop-color="#d9f5d8"/><stop offset=".86" stop-color="#f5f4d6"/><stop offset="1" stop-color="#fff3d5"/></linearGradient><linearGradient id="P" x1="1422.44" y1="-19.111" x2="1502.6" y2="67.194" xlink:href="#Z"><stop stop-color="#fff"/><stop offset="1" stop-color="#ca5f4b"/></linearGradient><linearGradient id="Q" x1="1464.38" y1="158.33" x2="1592.77" y2="-15.586" xlink:href="#Z"><stop stop-color="#004e05"/><stop offset="1" stop-color="#acb807"/></linearGradient><linearGradient id="R" x1="1511.07" y1="116.088" x2="1590.14" y2="8.942" xlink:href="#Z"><stop stop-color="#004e05"/><stop offset=".45" stop-color="#4e7e06"/><stop offset="1" stop-color="#acb807"/></linearGradient><linearGradient id="S" x1="1492.2" y1="155.777" x2="1567.68" y2="53.546" xlink:href="#Z"><stop stop-color="#004e05"/><stop offset=".45" stop-color="#4e7e06"/><stop offset="1" stop-color="#acb807"/></linearGradient><linearGradient id="T" x1="1479.17" y1="93.851" x2="1531.64" y2="22.735" xlink:href="#Z"><stop stop-color="#004e05"/><stop offset=".45" stop-color="#4e7e06"/><stop offset="1" stop-color="#acb807"/></linearGradient><linearGradient id="U" x1="1512.95" y1="13.835" x2="1532.61" y2="-12.826" xlink:href="#Z"><stop stop-color="#004e05"/><stop offset=".45" stop-color="#4e7e06"/><stop offset="1" stop-color="#acb807"/></linearGradient><linearGradient id="V" x1="1537.47" y1="128.722" x2="1586.68" y2="62.08" xlink:href="#Z"><stop stop-color="#004e05"/><stop offset=".45" stop-color="#4e7e06"/><stop offset="1" stop-color="#acb807"/></linearGradient><linearGradient id="W" x1="1496.34" y1="157.336" x2="1570.74" y2="56.538" xlink:href="#Z"><stop stop-color="#004e05"/><stop offset=".45" stop-color="#4e7e06"/><stop offset="1" stop-color="#acb807"/></linearGradient><radialGradient id="X" cx="0" cy="0" r="1" gradientTransform="translate(103 420) rotate(-90) scale(645)" xlink:href="#Z"><stop offset=".181" stop-color="#82f4f6"/><stop offset=".933" stop-color="#82f4f6" stop-opacity="0"/></radialGradient><clipPath id="Y"><path fill="#fff" d="M0 0h1580v226H0z"/></clipPath><linearGradient id="Z" gradientUnits="userSpaceOnUse"/></defs></svg>