<svg xmlns="http://www.w3.org/2000/svg" xmlns:xlink="http://www.w3.org/1999/xlink" width="335" height="492" fill="none"><g clip-path="url(#H)"><path fill="#fff" d="M0 0h335v492H0z"/><path d="M335 0H0v492h335V0z" fill="url(#A)"/><path d="M335.002 492h-95.804c27.026-22.059 58.633-57.41 95.804-112.239V492z" fill="url(#B)"/><g fill-rule="evenodd"><path opacity=".19" d="M36.04 0H0v252.946c22.4 27.426 45.048 48.407 71.58 42.007 71.605-17.271 139.265-42.117 194.998-230.995C273.345 41.03 278.856 19.733 283.36 0h-20.842c-.296 4.228-1.075 8.412-2.325 12.47a6.79 6.79 0 0 1-.275 1.461c-7.158 23.68-15.585 46.958-25.245 69.732-1.778 4.31-3.326 8.796-4.879 13.298l-.001.003c-4.092 11.859-8.224 23.835-16.702 33.026-5.02 5.882-12.098 9.625-19.786 10.463-6.248.167-11.38-2.894-16.568-5.988l-2.499-1.474c-8.019-5.4-15.433-11.648-22.115-18.634l-.062-.061c-7.147-7.051-14.349-14.157-24.653-15.74-16.32-2.287-29.073 10.704-36.655 23.837L88.762 126c-3.476 6.375-7.067 12.96-12.923 17.373a30.33 30.33 0 0 1-20.143 5.092c-28.711-2.131-33.245-39.768-33.88-62.021C21.071 57.135 27.562 27.996 36.04 0zm78.105 236.621a61.46 61.46 0 0 0 26.04 1.07c2.189.18 4.391.084 6.556-.285 2.976-.521 5.848-1.525 8.5-2.972l5.312-1.617a7.24 7.24 0 0 0 4.085-2.961c.963-1.445 1.374-3.188 1.16-4.911 9.057-11.973 12.923-29.965 13.102-42.862.257-29.18-24.129-64.883-57.17-54.281-29.364 9.311-41.776 50.295-35.541 77.708a39.99 39.99 0 0 0 9.649 19.441c4.947 5.467 11.309 9.46 18.383 11.539l-.076.131zm-11.818 33.055c1.593-.96 2.796-2.452 3.395-4.212.974-.646 1.828-1.457 2.522-2.397a18.31 18.31 0 0 0 4.755-11.875c-.329-3.301-1.529-6.456-3.477-9.142-4.532-6.556-11.714-11.403-19.654-7.582a7.57 7.57 0 0 0-2.748 2.724 7.58 7.58 0 0 0-1.046 3.725c-.02 1.311.3 2.605.929 3.756s1.546 2.118 2.661 2.809a65.91 65.91 0 0 1-.335 5.584c-.754 4.744.194 9.602 2.675 13.714.499.867 1.164 1.626 1.958 2.235s1.7 1.054 2.666 1.311 1.974.32 2.965.186a7.57 7.57 0 0 0 2.809-.968l-.076.132zm-69.809-16.317c11.141 10.197 34.454 11.137 42.613-3.675 3.153-5.462 2.765-12.117 2.397-18.409l-.22-4.848c-.078-4.649-.401-9.296-.724-13.947-.476-6.848-.952-13.706-.65-20.595.139-1.634-.339-3.26-1.339-4.558s-2.451-2.176-4.065-2.458a7.08 7.08 0 0 0-3.128-1.739 7.09 7.09 0 0 0-3.579.011c-6.809 1.536-12.625 6.542-17.934 11.111l-.013.012-2.391 2.042c-5.775 4.182-10.831 9.276-14.968 15.083-8.345 13.392-8.075 30.97 4.003 41.97z" fill="url(#C)"/><path d="M277.668 492H0l.001-68.435c4.553-5.924 10.303-12.756 17.553-20.78a254.4 254.4 0 0 0 51.633-88.597 339.43 339.43 0 0 0 11.111 59.075s36.412-23.188 52.617-39.352c11.736-11.707 33.849-58.566 46.399-85.162l9.077-18.507c1.566-2.062-4.442-2.676-11.199-3.366h-.001c-7.402-.756-15.701-1.603-15.924-4.546-.386-4.032-40.333 3.897-62.543 8.627l.284-.493c22.572-5.659 63.619-15.797 67.573-15.747 2.447.026 3.853 1.386 5.702 3.175 2.294 2.22 5.271 5.099 11.764 6.909 4.175 1.185 14.013 5.07 25.047 9.69 2.955-11.032 16.705-61.006 22.146-61.104 6.17-.071 27.781 12.537 27.781 12.537a94.41 94.41 0 0 1 4.524-21.332c4.312-9.657 18.815-30.511 34.068-52.444l.003-.004C312.09 91.331 327.24 69.548 335 55.435v3.57c-15.107 23.372-33.189 51.963-32.176 55.295.71 2.418 14.727 16.038 29.883 30.765l.002.003 2.291 2.226v5.605c-13.46-15.209-28.625-29.71-35.837-27.406-14.545 4.647-29.22 34.082-31.773 41.538s-17.807 130.845-19.261 144.889l5.531-8.604c25.455-39.629 46.168-71.877 55.269-66.909 5.281 2.863 14.368-3.798 26.071-17.382v201.018c-4.228 4.92-8.129 9.536-11.051 13.481-4.82 6.509-11.019 12.009-17.034 17.346l-.002.001c-7.613 6.755-14.932 13.249-18.786 21.196-2.549 5.254-6.441 12.526-10.459 19.933zM66.652 361.795a3.79 3.79 0 0 0 2.279-1.748 3.98 3.98 0 0 0 .394-2.881l-.083-.311a11.38 11.38 0 0 1 .01-2.139l.472-2.485a3.79 3.79 0 0 0-.392-2.809c-.249-.432-.581-.811-.977-1.114a3.79 3.79 0 0 0-1.329-.655c-.949-.257-1.962-.135-2.823.34-.435.256-.814.597-1.115 1.002s-.519.865-.64 1.355c-.817 2.852-.962 5.855-.425 8.773.262.966.896 1.79 1.763 2.291s1.898.637 2.866.381zm173.749 7.864c7.484-3.169 14.074-8.127 19.193-14.439a98.41 98.41 0 0 0 12.789-16.692l4.587-7.945c1.419-2.501 2.999-4.908 4.729-7.205a17.51 17.51 0 0 1 5.73-4.922 10.05 10.05 0 0 1 6.361-.705c1.342.25 2.636.659 3.931 1.067l.004.002c1.296.409 2.592.818 3.936 1.068 3.322.549 6.732-.023 9.693-1.626a42.5 42.5 0 0 0 16.854-16.227c1.988-3.143 3.388-6.621 4.132-10.265a65.47 65.47 0 0 0 .267-13.503l-.178-4.049-.368-10.624a79.53 79.53 0 0 0-.342-9.871 18.01 18.01 0 0 0-3.362-9.34 10.59 10.59 0 0 0-4.371-3.042 10.58 10.58 0 0 0-5.3-.527 8.15 8.15 0 0 0-3.437 1.237 8.16 8.16 0 0 0-2.551 2.615l-.569.985c-.003.046-.017.091-.04.13a.28.28 0 0 1-.049.064c-.013.013-.028.025-.044.036-.178.037-.354.082-.529.126h-.001l-.001.001c-.262.067-.521.133-.777.168l-.23-.132a40.17 40.17 0 0 1-1.855-3.611c.241-.655.297-1.364.161-2.049s-.458-1.318-.932-1.832a3.79 3.79 0 0 0-1.751-1.076c-.671-.191-1.382-.193-2.055-.005-3.988.831-5.846 4.302-7.66 7.688v.002c-.721 1.345-1.434 2.677-2.27 3.824-1.985 2.753-4.263 5.273-6.538 7.79-1.505 1.664-3.008 3.327-4.424 5.054a38.5 38.5 0 0 0-7.977 13.21 118.82 118.82 0 0 0-1.88 14.629c-1.288 8.606-6.421 15.671-11.424 22.557l-2.8 3.9c-10.472 14.878-21.876 31.143-23.408 49.869a3.78 3.78 0 0 0 .39 1.673c.256.52.628.975 1.087 1.329s.994.598 1.563.713 1.156.098 1.716-.05zm17.361 29.372c.855.354 1.811.384 2.686.083s1.61-.912 2.066-1.717l2.138-3.603.008-.012c1.439-2.393 2.876-4.781 4.147-7.285.508-.88.855-1.881 1.197-2.867l.239-.681a5.88 5.88 0 0 0 .634-2.379c.041-.829-.094-1.657-.397-2.43-.409-.646-.946-1.202-1.577-1.634a5.67 5.67 0 0 0-2.093-.88 10.96 10.96 0 0 0-1.984-.051 3.82 3.82 0 0 0-1.589-.211 3.8 3.8 0 0 0-1.534.465c-2.357 1.502-4.395 3.454-5.995 5.745a21.24 21.24 0 0 0-3.333 7.605c-.244.972-.094 2.001.417 2.862a3.79 3.79 0 0 0 2.314 1.735l.656.379-.246.427c-.227.888-.124 1.827.289 2.645a3.79 3.79 0 0 0 1.957 1.804zm-41.878 6.141c1.773-.375 3.376-1.32 4.561-2.692 2.185-2.681 3.829-5.76 4.842-9.067l.847-2.225.568-.985a12.86 12.86 0 0 1 2.257-3.075c1.534-1.572 2.752-3.425 3.588-5.457a11.37 11.37 0 0 0-.276-7.557c-.195-.569-.508-1.091-.917-1.531a4.28 4.28 0 0 0-1.461-1.024c-.332-.561-.803-1.026-1.367-1.352s-1.204-.5-1.856-.507-1.294.155-1.865.469a3.79 3.79 0 0 0-1.396 1.324c-1.205 2.087-2.472 4.163-3.744 6.246-4.37 7.158-8.796 14.407-10.941 22.526-.212.825-.139 1.697.205 2.476a3.79 3.79 0 0 0 1.694 1.816 8.3 8.3 0 0 0 5.261.615zm-.672-33.203a3.79 3.79 0 0 0-5.115-1.377c-1.649 1.314-2.956 3.007-3.812 4.934l-1.414 2.904c-.536 1.173-.962 2.392-1.272 3.644-.173.714-.135 1.463.11 2.157a3.79 3.79 0 0 0 1.27 1.747c.584.462 1.291.742 2.033.805a3.8 3.8 0 0 0 2.141-.453c3.284-2.297 5.903-5.42 7.591-9.055a3.79 3.79 0 0 0 .379-2.877c-.26-.971-.896-1.799-1.766-2.302l-.145-.127zm3.913 65.249a3.79 3.79 0 0 0 2.389-.196c.476-.138.904-.406 1.236-.775l.492-.854c.613-1.165.978-2.444 1.075-3.757l1.346-2.331c.493-.863.628-1.886.375-2.847-.262-.96-.89-1.778-1.749-2.279-.542-.317-1.161-.477-1.789-.464a3.79 3.79 0 0 0-2.24-1.731c-.961-.229-1.973-.097-2.842.373-.435.256-.814.597-1.115 1.001a3.8 3.8 0 0 0-.64 1.356c-.242.942-.114 1.94.359 2.79l.41.806c.186.57.332 1.152.439 1.742l-.352 1.065c-.195.824-.313 1.664-.355 2.51.006.992.4 1.942 1.098 2.647.57.426 1.235.706 1.938.813l-.075.131zM55.963 385.084c-3.732 1.736-6.964 4.387-9.396 7.707a3.81 3.81 0 0 0-1.599.111c-.519.151-1 .411-1.41.763s-.741.787-.969 1.277a3.79 3.79 0 0 0-.355 1.563l-.09 4.326c-.401.694-.622 1.467-.842 2.234v.002l-.219.74c-2.576 7.91-2.743 16.407-.48 24.411a3.79 3.79 0 0 0 3.669 2.819c18.106-1.716 20.046-25.546 20.01-39.662.019-.752-.206-1.49-.64-2.103a3.49 3.49 0 0 0-1.771-1.303c-.161-.53-.365-1.086-.613-1.667a3.78 3.78 0 0 0-1.02-1.105 3.79 3.79 0 0 0-1.37-.621c-.493-.114-1.005-.127-1.503-.04s-.975.274-1.401.548zm17.545-7.643a3.79 3.79 0 0 0-2.673 4.629 102.76 102.76 0 0 0 2.946 10.062l-.052 2.289a141.37 141.37 0 0 1-.41 6.548 17.93 17.93 0 0 0 3.374 13.111 3.8 3.8 0 0 0 3.242 1.074 3.79 3.79 0 0 0 2.79-1.969c1.415-2.319 2.032-5.038 1.755-7.741a44.08 44.08 0 0 0-1.451-8.936c-.405-1.595-.867-3.139-1.332-4.69l-.354-1.186a21.65 21.65 0 0 0-.58-3.924c-.176-.727-.584-1.377-1.163-1.853-.43-1.605-.86-3.21-1.092-5.008a3.79 3.79 0 0 0-.731-1.359c-.334-.399-.747-.724-1.213-.956a3.79 3.79 0 0 0-1.493-.392 3.78 3.78 0 0 0-1.526.236l-.038.065zm111.087-133.195c-2.087 3.615-6.546 13.203-12.001 24.932-12.383 26.626-29.897 64.285-36.436 68.137-9.419 5.549-52.441 46.327-52.441 46.327 10.402 27.323 27.042 50.587 54.322 48.828 7.942-.996 15.466-4.124 21.773-9.053a33.93 33.93 0 0 0 .147 2.93c.314 2.413 3.09 5.111 5.647 3.26l.576-.543c.393 1.761 1.15 3.42 2.221 4.872a3.79 3.79 0 0 0 1.376 1.356c.568.326 1.211.499 1.866.503s1.299-.163 1.871-.483a3.8 3.8 0 0 0 1.39-1.342 35.48 35.48 0 0 0 2.236-3.874c2.997-2.315 5.4-5.308 7.012-8.734a44.19 44.19 0 0 0 5.553-14.697c.706-4.401 1.007-8.857.901-13.313a688.58 688.58 0 0 0 44.721-62.296c6.089-12.593 10.361-33.108 13.269-55.811s-56.958-42.821-63.866-31.007l-.137.008zm48.591-66.496c-12.089 2.212-17.239 46.69-18.541 59.333l36.803 15.864 2.952-29.503v-.001-.002l3.405-32.834c-4.222-5.196-14.059-14.771-24.482-12.866l-.137.009z" fill="url(#D)"/></g><path d="M84.646 234.035c.416-.008.831.014 1.243.067l-4.933 17.253-.019.065-.001.002c-7.598 26.436-14.145 49.215-13.338 55.81.125.861.255 1.961.41 3.268l.447 3.662c3.962-11.054 7.196-21.689 10.249-31.73l.001-.002.001-.002v-.002c5.34-17.564 10.128-33.309 17.294-46.299.934-1.694 1.859-3.523 2.567-5.128l-9.154 1.87 9.438-2.363-.009-.136c3.601-8.419-16.123-1.65-33.891 4.448-11.866 4.073-22.86 7.846-25.451 6.596-1.108 4.372 11.093.234 23.313-3.911h.002c12.185-4.133 24.388-8.272 23.437-3.988l-.34.07c.047.015.155.037.306.065l-.006.021.05-.013 1.353.227c1.027.167 2.151.35 2.261.413a27.47 27.47 0 0 1-3.867-.224l.099-.376-1.464.337z" fill="url(#D)"/><path style="mix-blend-mode:multiply" opacity=".6" d="M277.783 492h-20.332l5.634-6.738c3.451-4.288 6.657-8.271 10.117-10.695 8.102-5.674 14.92-26.346 19.249-39.472 2.426-7.356 4.071-12.342 4.722-10.992.569 1.181 1.87-1.171 4.081-5.168 4.835-8.737 14.017-25.333 29.404-30.085a22.25 22.25 0 0 0 4.344-1.855v33.161c-4.196 4.878-8.065 9.455-10.966 13.372-4.827 6.517-11.029 12.027-17.046 17.372l-.001.001c-7.601 6.752-14.907 13.242-18.776 21.171-2.558 5.243-6.432 12.516-10.43 19.928z" fill="url(#E)"/><path d="M310.804 491.023c-12.349-5.072.585-27.02 5.859-21.218s-1.42 23.081-5.859 21.218z" fill="url(#F)"/><path fill-rule="evenodd" d="M335 387.205C279.791 435.012 214.253 471.209 142.182 492H0V0h335v387.205z" fill="url(#G)"/></g><defs><radialGradient id="A" cx="0" cy="0" r="1" gradientTransform="translate(-107.5 -151) rotate(52.9791) scale(720.803 718.846)" xlink:href="#I"><stop stop-color="#0e48d6"/><stop offset="1" stop-color="#46e7c4"/></radialGradient><linearGradient id="B" x1="175.655" y1="529.123" x2="335.002" y2="666.977" xlink:href="#I"><stop stop-color="#ffdea4"/><stop offset="1" stop-color="#fabb52"/></linearGradient><linearGradient id="C" x1="247.325" y1="-1675.2" x2="247.325" y2="-93.99" xlink:href="#I"><stop stop-color="#e8efff"/><stop offset=".21" stop-color="#f3f6ff"/><stop offset=".54" stop-color="#fcfdff"/><stop offset=".99" stop-color="#fff"/></linearGradient><linearGradient id="D" x1="-26.589" y1="-201.298" x2="687.074" y2="80.247" xlink:href="#I"><stop stop-color="#76fbde"/><stop offset=".32" stop-color="#abf8da"/><stop offset=".62" stop-color="#d9f5d8"/><stop offset=".86" stop-color="#f5f4d6"/><stop offset="1" stop-color="#fff3d5"/></linearGradient><linearGradient id="E" x1="174.639" y1="583.038" x2="380.238" y2="226.93" xlink:href="#I"><stop stop-color="#76fbde"/><stop offset=".32" stop-color="#abf8da"/><stop offset=".62" stop-color="#d9f5d8"/><stop offset=".86" stop-color="#f5f4d6"/><stop offset="1" stop-color="#fff3d5"/></linearGradient><linearGradient id="F" x1="363.331" y1="433.424" x2="235.402" y2="552.246" xlink:href="#I"><stop stop-color="#fff"/><stop offset="1" stop-color="#ca5f4b"/></linearGradient><radialGradient id="G" cx="0" cy="0" r="1" gradientTransform="rotate(-180) scale(512 512)" xlink:href="#I"><stop offset=".505" stop-color="#82f4f6"/><stop offset="1" stop-color="#82f4f6" stop-opacity="0"/></radialGradient><clipPath id="H"><path fill="#fff" d="M0 0h335v492H0z"/></clipPath><linearGradient id="I" gradientUnits="userSpaceOnUse"/></defs></svg>