<svg width="79" height="20" viewBox="0 0 158 40" fill="none" xmlns="http://www.w3.org/2000/svg">
<path d="M101.8 31.52V8.47998H109.256C110.387 8.47998 111.304 8.52265 112.008 8.60798C113.811 8.82131 115.363 9.45598 116.664 10.512C117.976 11.568 118.973 12.9226 119.656 14.576C120.339 16.2186 120.68 18.0266 120.68 20C120.68 21.9733 120.339 23.7866 119.656 25.44C118.973 27.0826 117.976 28.432 116.664 29.488C115.363 30.544 113.811 31.1786 112.008 31.392C111.304 31.4773 110.387 31.52 109.256 31.52H101.8ZM109.256 27.424C110.387 27.424 111.219 27.3706 111.752 27.264C112.712 27.072 113.512 26.6186 114.152 25.904C114.803 25.1786 115.283 24.304 115.592 23.28C115.912 22.2453 116.072 21.152 116.072 20C116.072 18.816 115.907 17.7066 115.576 16.672C115.256 15.6373 114.771 14.768 114.12 14.064C113.48 13.36 112.691 12.9173 111.752 12.736C111.219 12.6293 110.387 12.576 109.256 12.576H106.216V27.424H109.256Z" fill="#273852"/>
<path d="M84.152 31.52H79.8V8.47998H84.152V31.52Z" fill="#273852"/>
<path d="M62.272 31.52H48V8.47998H52.352V27.456H62.272V31.52Z" fill="#273852"/>
<path d="M146.828 32C144.556 32 142.577 31.504 140.892 30.512C139.207 29.5093 137.911 28.1013 137.004 26.288C136.108 24.4747 135.66 22.3787 135.66 20C135.66 17.6213 136.108 15.5253 137.004 13.712C137.911 11.8987 139.207 10.496 140.892 9.504C142.577 8.50133 144.556 8 146.828 8C149.1 8 151.079 8.50133 152.764 9.504C154.449 10.496 155.74 11.8987 156.636 13.712C157.543 15.5253 157.996 17.6213 157.996 20C157.996 22.3787 157.543 24.4747 156.636 26.288C155.74 28.1013 154.449 29.5093 152.764 30.512C151.079 31.504 149.1 32 146.828 32ZM146.956 27.904C148.364 27.904 149.548 27.5787 150.508 26.928C151.468 26.2773 152.188 25.36 152.668 24.176C153.148 22.992 153.388 21.6 153.388 20C153.388 17.5253 152.823 15.5893 151.692 14.192C150.561 12.7947 148.897 12.096 146.7 12.096C145.292 12.096 144.108 12.4213 143.148 13.072C142.188 13.7227 141.468 14.64 140.988 15.824C140.508 17.008 140.268 18.4 140.268 20C140.268 22.4747 140.833 24.4107 141.964 25.808C143.095 27.2053 144.759 27.904 146.956 27.904Z" fill="#273852"/>
<path fill-rule="evenodd" clip-rule="evenodd" d="M14.0132 0L23.9123 15.4954L14.0126 21.2648L4.11411 15.4953L14.0132 0ZM7.14444 14.7625L14.0132 4.01071L20.8819 14.7626L14.0127 18.7658L7.14444 14.7625Z" fill="#273852"/>
<path d="M13.9985 24.6706L2.5152 17.9774L2.20161 18.4683C-1.33522 24.0046 -0.545326 31.2552 4.10069 35.9003C9.56793 41.3666 18.4321 41.3666 23.8993 35.9003C28.5453 31.2552 29.3352 24.0046 25.7984 18.4683L25.4847 17.9773L13.9985 24.6706Z" fill="#273852"/>
</svg>
