<svg width="40" height="40" viewBox="0 0 24 24" fill="none" xmlns="http://www.w3.org/2000/svg">
<path d="M24 12C24 5.37258 18.6274 0 12 0C5.37258 0 0 5.37258 0 12C0 18.6274 5.37258 24 12 24C18.6274 24 24 18.6274 24 12Z" fill="#F4F6F8"/>
<path d="M16.2147 9.21656H5.15337C5.12604 9.21614 5.09942 9.20775 5.07678 9.19238C5.05418 9.177 5.03656 9.1553 5.02615 9.13003C5.01575 9.10472 5.01298 9.07692 5.01818 9.05011C5.02343 9.02325 5.03642 8.99855 5.05559 8.979L7.48695 6.54483C7.56683 6.46655 7.67412 6.42244 7.78597 6.42188H18.8472C18.8746 6.42225 18.9012 6.43064 18.9239 6.44606C18.9465 6.46144 18.9641 6.48309 18.9745 6.50841C18.9849 6.53367 18.9877 6.56147 18.9824 6.58833C18.9772 6.61519 18.9642 6.63989 18.9451 6.65944L16.5137 9.09356C16.4338 9.17189 16.3265 9.21595 16.2147 9.21656Z" fill="url(#paint0_linear)"/>
<path d="M16.2147 17.6005H5.1534C5.12608 17.6002 5.0994 17.5918 5.07681 17.5764C5.05417 17.561 5.03659 17.5393 5.02618 17.5141C5.01573 17.4888 5.01297 17.461 5.01822 17.4341C5.02347 17.4073 5.03645 17.3825 5.05557 17.363L7.48693 14.9289C7.56686 14.8506 7.67411 14.8065 7.786 14.8059H18.8473C18.8746 14.8063 18.9013 14.8147 18.9239 14.83C18.9465 14.8454 18.9641 14.8671 18.9745 14.8924C18.985 14.9177 18.9877 14.9455 18.9825 14.9724C18.9772 14.9992 18.9642 15.0239 18.9451 15.0434L16.5137 17.4776C16.4338 17.5559 16.3266 17.6 16.2147 17.6005Z" fill="url(#paint1_linear)"/>
<path d="M18.8473 13.4086H7.786C7.67411 13.408 7.56686 13.3639 7.48693 13.2856L5.05557 10.8515C5.03645 10.8319 5.02347 10.8072 5.01822 10.7803C5.01297 10.7535 5.01573 10.7257 5.02618 10.7004C5.03659 10.6752 5.05417 10.6535 5.07681 10.6381C5.0994 10.6227 5.12608 10.6143 5.1534 10.6139H16.2147C16.3266 10.6145 16.4338 10.6586 16.5137 10.7369L18.9451 13.171C18.9642 13.1906 18.9772 13.2153 18.9825 13.2421C18.9877 13.269 18.985 13.2968 18.9745 13.322C18.9641 13.3474 18.9465 13.369 18.9239 13.3844C18.9013 13.3998 18.8746 13.4082 18.8473 13.4086Z" fill="url(#paint2_linear)"/>
<defs>
<linearGradient id="paint0_linear" x1="18.985" y1="6.42141" x2="5.13725" y2="17.7263" gradientUnits="userSpaceOnUse">
<stop stop-color="#00A3FF"/>
<stop offset="1" stop-color="#3ADCFF"/>
</linearGradient>
<linearGradient id="paint1_linear" x1="18.985" y1="6.42143" x2="5.13728" y2="17.7263" gradientUnits="userSpaceOnUse">
<stop stop-color="#00A3FF"/>
<stop offset="1" stop-color="#3ADCFF"/>
</linearGradient>
<linearGradient id="paint2_linear" x1="18.985" y1="6.42143" x2="5.13727" y2="17.7263" gradientUnits="userSpaceOnUse">
<stop stop-color="#00A3FF"/>
<stop offset="1" stop-color="#3ADCFF"/>
</linearGradient>
</defs>
</svg>
